<?xml version="1.0" encoding="UTF-8" standalone="no"?>

<!-- Created with Inkscape (http://www.inkscape.org/) -->



<svg

   xmlns:dc="http://purl.org/dc/elements/1.1/"

   xmlns:cc="http://creativecommons.org/ns#"

   xmlns:rdf="http://www.w3.org/1999/02/22-rdf-syntax-ns#"

   xmlns:svg="http://www.w3.org/2000/svg"

   xmlns="http://www.w3.org/2000/svg"

   version="1.1"

   width="381.57178"

   height="480"

   viewBox="0 0 38157.178 48007.939"

   id="svg2"

   xml:space="preserve"

   style="fill-rule:evenodd"><metadata

   id="metadata92"><rdf:RDF><cc:Work

       rdf:about=""><dc:format>image/svg+xml</dc:format><dc:type

         rdf:resource="http://purl.org/dc/dcmitype/StillImage" /><dc:title></dc:title></cc:Work></rdf:RDF></metadata>

 <defs

   id="defs4">

  <style

   type="text/css"

   id="style6" />

 </defs>

 <g

   transform="translate(-29023.315,11726.583)"

   id="g3111"><path

     d="m 47975.686,-10182.453 c -4977.195,0 -8582.662,906.9887 -11386.082,1878.9408 -2803.42,971.9521 -5949.147,1259.2901 -5949.147,1259.2901 L 31097.7,736.39213 c 1031.918,914.48457 991.94,1324.25357 1144.355,2975.82257 149.915,1631.5803 1029.419,16363.2763 1029.419,16363.2763 227.372,5262.034 107.44,7608.211 2058.84,9562.11 1783.994,1783.994 4577.419,2033.854 4577.419,2033.854 0,0 2243.736,57.467 4232.615,599.662 1801.484,489.723 3343.115,2461.112 3343.115,2461.112 l 1229.307,0 c 0,0 1526.64,-1968.89 3325.626,-2461.112 1993.876,-544.693 4235.112,-599.662 4235.112,-599.662 0,0 2793.426,-249.86 4577.42,-2033.854 1958.896,-1958.896 1831.468,-4297.578 2058.84,-9562.11 0,0 887,-14731.696 1031.918,-16363.2763 152.414,-1721.5296 112.437,-2061.338 1144.355,-2975.82257 l 457.242,-7780.61423 c 0,0 -3148.225,-287.338 -5949.146,-1259.2901 -2803.42,-971.9521 -6408.888,-1878.9408 -11386.082,-1878.9408 l -229.871,0 z"

     id="path12"

     style="fill:#e6001a;fill-rule:nonzero" /><path

     d="m 37096.818,-6844.3347 c 2218.749,-769.5662 5759.254,-1791.4902 10878.868,-1791.4902 l 229.87,0 c 5122.113,0 8662.617,1021.924 10878.868,1791.4902 1749.014,607.1577 3587.977,956.9605 4829.777,1146.8535 -99.943,1731.524 -289.836,4932.21979 -337.309,5746.760648 C 62662.407,1021.2316 62552.469,1808.2879 62427.539,3254.9724 l -27.484,322.3184 c -144.918,1634.0789 -996.938,15806.0902 -1031.918,16408.2512 l -57.468,1411.704 c -167.406,4212.625 -249.859,5844.206 -1551.625,7148.47 -1306.764,1306.764 -3440.561,1564.119 -3600.471,1581.609 -369.791,12.493 -2523.577,107.439 -4524.949,652.132 -1539.133,419.764 -2820.91,1561.62 -3538.006,2318.693 -719.594,-754.574 -2008.868,-1898.929 -3548,-2318.693 -2001.372,-544.693 -4155.158,-639.639 -4524.949,-652.132 -157.412,-17.49 -2291.209,-274.845 -3600.471,-1581.609 -1301.766,-1301.766 -1381.721,-2940.842 -1551.625,-7180.952 l -54.969,-1356.735 c -37.479,-627.146 -884.502,-14799.1579 -1036.916,-16438.234 l -29.983,-337.3099 C 33633.77,1933.2175 33556.314,1078.6992 32604.35,51.77804 c -47.473,-812.04227 -237.366,-4017.73524 -339.808,-5749.25924 1244.298,-189.893 3080.763,-539.6958 4832.276,-1146.8535 z m 10878.868,-4882.2483 c -5589.35,0 -9464.665,1119.369 -11893.296,1963.8933 -2581.045,896.9944 -5554.369,1176.8366 -5584.352,1179.3352 l -1489.161,137.4226 87.451,1494.1577 494.721,8420.2537 479.729,424.7605 c 494.722,442.2507 494.722,442.2507 599.662,1614.0902 l 32.482,349.8028 c 147.417,1586.6057 1016.927,16165.888 1024.423,16313.304 l 54.969,1321.755 c 172.402,4355.046 254.856,7038.533 2456.115,9239.792 2156.285,2156.285 5394.459,2468.609 5531.882,2481.102 l 47.473,4.997 47.473,2.498 c 19.989,0 2088.823,62.465 3867.82,547.192 1051.907,287.338 2211.254,1516.645 2533.572,1923.915 l 462.24,587.169 752.076,2.499 1981.383,0 467.236,-594.665 c 319.82,-407.27 1466.674,-1634.079 2516.082,-1918.918 1778.997,-484.727 3845.333,-547.192 3867.82,-547.192 l 44.974,-2.498 49.972,-4.997 c 137.423,-12.493 3375.598,-322.319 5531.882,-2481.102 2203.758,-2203.758 2283.713,-4874.752 2453.617,-9209.808 l 57.468,-1376.724 c 7.495,-122.431 884.501,-14704.2119 1024.422,-16295.8148 l 29.983,-329.814 c 99.944,-1181.8339 99.944,-1181.8339 602.161,-1629.0818 l 479.729,-424.7605 584.671,-9911.9128 -1489.161,-137.4226 c -29.983,-4.9972 -3000.808,-284.8394 -5586.851,-1179.3352 -2426.132,-842.0253 -6303.946,-1963.8933 -11890.797,-1963.8933 l -229.87,0 z"

     id="path14"

     style="fill:#b7002e;fill-rule:nonzero" /><path

     d="m 47975.686,-10182.453 c -4977.195,0 -8582.662,906.9887 -11386.082,1878.9408 -2803.42,971.9521 -5949.147,1259.2901 -5949.147,1259.2901 L 31097.7,736.39213 c 1031.918,914.48457 991.94,1324.25357 1144.355,2975.82257 149.915,1631.5803 1029.419,16363.2763 1029.419,16363.2763 227.372,5262.034 107.44,7608.211 2058.84,9562.11 1783.994,1783.994 4577.419,2033.854 4577.419,2033.854 0,0 2243.736,57.467 4232.615,599.662 1801.484,489.723 3343.115,2461.112 3343.115,2461.112 l 1229.307,0 c 0,0 1526.64,-1968.89 3325.626,-2461.112 1993.876,-544.693 4235.112,-599.662 4235.112,-599.662 0,0 2793.426,-249.86 4577.42,-2033.854 1958.896,-1958.896 1831.468,-4297.578 2058.84,-9562.11 0,0 887,-14731.696 1031.918,-16363.2763 152.414,-1721.5296 112.437,-2061.338 1144.355,-2975.82257 l 457.242,-7780.61423 c 0,0 -3148.225,-287.338 -5949.146,-1259.2901 -2803.42,-971.9521 -6408.888,-1878.9408 -11386.082,-1878.9408 l -229.871,0 z"

     id="path16"

     style="fill:#e6001a;fill-rule:nonzero" /><path

     d="m 36744.517,-7858.7629 c 2291.208,-794.5521 5946.648,-1851.4564 11231.169,-1851.4564 l 229.87,0 c 5284.521,0 8939.961,1056.9043 11228.671,1851.4564 2246.234,779.5606 4642.383,1119.369 5609.338,1231.8056 -47.473,774.5634 -402.273,6816.15788 -422.262,7148.47056 -949.465,889.49864 -1004.434,1414.20284 -1124.366,2823.40844 l -29.983,324.817 c -142.42,1619.0873 -994.44,15776.1073 -1029.42,16375.7693 l -57.468,1391.715 c -164.907,4132.671 -219.876,6216.496 -1866.448,7863.068 -1636.577,1639.076 -4257.6,1893.933 -4285.084,1896.431 -62.465,0 -2291.209,64.964 -4312.569,614.654 -1629.082,444.749 -2993.313,1931.411 -3425.569,2446.121 l -789.555,0 c -434.755,-512.211 -1808.981,-2001.372 -3438.062,-2446.121 -2021.361,-549.69 -4250.105,-614.654 -4345.051,-617.152 0,0 -2618.524,-257.355 -4255.102,-1893.933 -1644.073,-1644.073 -1699.042,-3737.893 -1866.448,-7895.549 l -57.467,-1351.738 c -37.479,-609.657 -879.504,-14766.6766 -1029.42,-16388.2625 l -29.983,-342.3071 c -117.434,-1324.2535 -182.397,-1913.9211 -1124.366,-2803.41973 -17.49,-332.31268 -374.789,-6373.90717 -419.764,-7150.96907 966.955,-114.9353 3363.105,-454.7437 5606.84,-1231.8057 z m 11231.169,-2795.9241 c -5426.941,0 -9184.823,1086.8874 -11540.995,1903.9269 -2713.47,939.4704 -5806.727,1229.3071 -5836.71,1234.3042 l -457.242,42.4761 494.721,8432.74658 147.417,129.92672 c 814.541,724.5916 837.028,969.4536 956.961,2321.1916 l 29.983,344.8057 c 149.915,1604.0958 1021.924,16200.8682 1029.419,16348.2842 l 54.969,1341.744 c 172.403,4312.569 237.367,6621.268 2143.792,8525.195 1883.938,1883.938 4747.324,2158.783 4867.256,2168.777 52.471,2.499 2241.237,64.964 4150.161,587.169 1624.085,442.251 3078.265,2278.716 3095.755,2296.206 l 142.42,182.397 1689.048,0 142.419,-182.397 c 14.992,-17.49 1454.181,-1851.457 3080.764,-2293.707 1911.422,-522.206 4097.69,-582.172 4120.177,-584.671 149.916,-12.493 3013.302,-287.338 4899.738,-2171.276 1906.426,-1906.425 1968.891,-4205.129 2141.293,-8495.211 l 54.969,-1381.721 c 7.496,-139.921 887,-14736.6934 1029.42,-16343.2878 l 29.983,-327.3155 c 122.431,-1424.1972 139.921,-1606.5944 959.459,-2338.6817 l 144.919,-129.92681 497.219,-8432.74659 -454.743,-42.4761 c -29.983,-2.4985 -3123.24,-294.8338 -5836.71,-1234.3042 -2356.172,-819.538 -6114.054,-1903.9263 -11540.995,-1903.9263 l -229.87,0 z"

     id="path18"

     style="fill:#ffffff;fill-rule:nonzero" /><path

     d="m 44377.714,26761.722 0,2198.761 c 0,129.926 64.963,224.873 204.884,224.873 l 287.338,0 0,389.78 -1808.98,0 0,-389.78 304.828,0 c 139.921,0 204.885,-92.448 204.885,-224.873 l 0,-1436.691 -502.217,0 0,-392.278 117.434,0 c 269.848,0 464.738,-87.451 584.67,-372.291 l 604.659,0 z"

     id="path20"

     style="fill:#ffffff;fill-rule:nonzero" /><path

     d="m 46186.694,27591.254 c 0,357.299 144.918,519.708 382.285,519.708 237.366,0 379.786,-162.409 379.786,-519.708 0,-357.298 -144.919,-524.704 -379.786,-524.704 -237.367,0 -382.285,167.406 -382.285,524.704 z m 819.538,684.615 c -249.859,172.402 -404.772,209.881 -712.098,209.881 -557.186,0 -961.958,-292.335 -961.958,-852.019 0,-659.629 592.166,-939.471 1186.831,-939.471 931.974,0 1344.242,632.144 1344.242,1351.738 0,954.462 -479.729,1599.099 -1444.186,1599.099 l -4.997,0 c -372.29,0 -959.459,-124.93 -959.459,-592.166 0,-287.338 187.394,-404.772 404.772,-404.772 257.355,0 417.264,134.924 417.264,307.326 0,142.42 -54.969,209.882 -182.397,272.347 l 237.366,69.961 c 479.73,0 674.62,-342.308 674.62,-869.51 l 0,-157.412 z"

     id="path22"

     style="fill:#ffffff;fill-rule:nonzero" /><path

     d="m 49267.458,28753.1 c 0,357.298 144.918,519.707 379.785,519.707 237.367,0 379.786,-162.409 379.786,-519.707 0,-357.299 -144.918,-524.705 -379.786,-524.705 -237.366,0 -379.785,167.406 -379.785,524.705 z m -52.471,-687.113 c 252.358,-172.403 404.772,-209.882 712.099,-209.882 519.707,0 956.96,307.327 956.96,852.02 0,659.628 -584.67,939.47 -1181.834,939.47 -916.983,0 -1341.743,-514.71 -1341.743,-1354.236 0,-951.964 439.752,-1599.099 1454.18,-1599.099 367.293,0 951.964,187.394 951.964,592.166 0,287.338 -167.406,404.772 -459.741,404.772 -199.888,0 -362.296,-134.924 -362.296,-307.327 0,-144.918 57.467,-209.881 182.397,-274.845 l -239.865,-69.96 c -477.231,0 -674.619,344.805 -674.619,772.065 l 0,257.354 z"

     id="path24"

     style="fill:#ffffff;fill-rule:nonzero" /><path

     d="m 51673.601,26691.762 c 327.316,49.971 647.135,69.96 971.952,69.96 319.82,0 882.003,-69.96 966.955,-69.96 l 87.451,84.952 c 0,334.811 -637.141,572.177 -1231.806,572.177 -162.408,0 -317.321,-22.487 -427.259,-64.963 l -14.991,424.76 c 184.895,-117.434 394.777,-154.912 607.157,-154.912 647.136,0 1186.831,339.808 1186.831,1034.417 0,724.591 -609.656,1059.402 -1264.287,1059.402 -514.71,0 -1161.845,-172.402 -1161.845,-794.552 0,-254.856 184.896,-452.245 442.251,-452.245 232.369,0 412.267,124.93 412.267,372.29 0,209.882 -167.405,317.321 -362.295,327.316 102.442,107.439 264.85,177.4 414.766,177.4 474.732,0 664.625,-259.854 664.625,-707.102 0,-342.307 -154.913,-599.662 -534.698,-599.662 -149.916,0 -292.336,32.482 -419.764,187.395 l -447.248,0 107.44,-1461.676 z"

     id="path26"

     style="fill:#ffffff;fill-rule:nonzero" /><path

     d="m 33031.609,22793.959 c 2536.071,3975.259 6141.539,7938.025 12088.187,9754.501 l -407.271,-594.665 c -5804.228,-2306.2 -9167.332,-6233.986 -11531,-9939.397 l -152.414,782.059 z"

     id="path28"

     style="fill:#ffffff;fill-rule:nonzero" /><path

     d="m 33391.407,-1869.6389 -124.93,-384.7831 267.349,-84.9521 c 109.938,-34.9803 149.916,-119.9324 114.936,-229.8704 l -574.676,-1781.4958 c -34.981,-109.9381 -117.434,-154.9127 -224.874,-119.9324 l -272.346,87.4507 -122.431,-384.7831 2910.859,-936.9719 357.299,1111.8733 -407.271,129.9267 c -202.386,-629.645 -479.729,-647.1352 -1039.414,-467.2366 l -432.256,139.9212 267.349,837.0281 137.423,-42.476 c 249.859,-79.955 309.825,-224.8733 249.859,-409.769 l -54.969,-169.9043 362.295,-117.4338 424.761,1321.755 -362.296,117.4338 -54.969,-169.9043 c -59.966,-184.8957 -192.391,-267.3493 -442.25,-184.8957 l -134.924,42.476 237.366,737.0845 c 34.98,109.9381 117.434,154.9127 227.372,119.9324 l 272.346,-87.4507 122.431,387.2817 -1701.541,547.1916 z"

     id="path30"

     style="fill:#ffffff;fill-rule:nonzero" /><path

     d="m 36604.595,-3188.8952 c 54.969,202.3859 -69.96,414.7662 -269.847,472.2338 -199.888,54.969 -412.268,-62.4648 -469.736,-264.8507 -57.467,-204.8846 64.964,-419.7634 264.851,-474.7324 197.389,-54.9691 419.763,64.9633 474.732,267.3493 z"

     id="path32"

     style="fill:#ffffff;fill-rule:nonzero" /><path

     d="m 38813.35,-6564.4925 404.772,-89.9493 272.347,1219.3127 -417.265,92.4479 c -104.941,-462.2394 -442.251,-797.0507 -949.465,-682.1155 -499.718,109.938 -687.113,529.7014 -509.713,1329.2507 157.412,709.6 434.755,1124.3662 1061.902,984.4451 472.234,-104.9408 637.141,-552.1887 544.693,-969.4535 l 417.265,-92.4479 c 169.904,829.5324 -227.372,1336.7465 -1059.403,1524.1409 -929.476,207.3831 -1701.541,-174.9015 -1936.409,-1226.8085 -212.38,-951.9634 304.828,-1721.5296 1174.338,-1916.4198 224.874,-49.9718 724.592,-42.476 964.457,99.9437 l 32.481,-272.3465 z"

     id="path34"

     style="fill:#ffffff;fill-rule:nonzero" /><path

     d="m 40899.674,-4113.3741 c 37.479,209.8817 -112.436,407.2704 -317.321,442.2507 -204.884,34.9803 -404.772,-102.4423 -439.752,-312.324 -37.479,-207.3831 107.44,-409.769 309.825,-444.7493 204.885,-34.9803 409.769,107.4395 447.248,314.8226 z"

     id="path36"

     style="fill:#ffffff;fill-rule:nonzero" /><path

     d="m 41806.663,-5854.8925 -122.431,-1161.8451 3035.789,-317.3211 119.932,1161.8451 -424.76,44.9747 c -47.474,-464.7381 -217.378,-744.5803 -742.082,-689.6113 l 212.38,2043.8479 c 12.493,114.9352 82.454,174.9014 197.389,164.907 l 274.845,-27.4845 42.476,402.2733 -1774,184.8958 -42.476,-402.2733 284.84,-29.9831 c 114.935,-12.493 169.904,-87.4507 159.909,-202.3859 l -212.38,-2043.8479 c -527.203,54.969 -632.144,362.2958 -584.67,827.0338 l -424.761,44.9746 z"

     id="path38"

     style="fill:#ffffff;fill-rule:nonzero" /><path

     d="m 45134.787,-7389.0277 1394.214,-22.4873 7.496,404.7718 -124.93,2.4986 -137.422,117.4338 64.963,249.8592 444.75,1551.6253 9.994,0 379.786,-1419.2 -87.451,-269.8479 c -49.972,-149.9155 -129.927,-242.3634 -242.363,-239.8648 l -97.445,0 -7.496,-404.7718 1461.676,-24.9859 4.997,404.7718 -207.383,2.4986 -134.924,117.4338 64.963,249.8592 414.767,1501.6535 9.994,0 354.8,-1511.6479 44.975,-267.3493 -119.933,-99.9436 -207.383,2.4985 -7.496,-404.7718 1131.862,-19.9887 4.998,404.7718 -54.969,0 c -144.919,2.4986 -247.361,62.4648 -317.322,337.3099 l -557.185,2323.6901 -849.522,12.493 -369.791,-1276.7803 -9.995,0 -347.304,1286.7747 -854.518,14.9915 -649.634,-2156.2845 c -107.439,-362.2958 -204.884,-474.7324 -349.803,-472.2338 l -59.966,0 -7.496,-404.7719 z"

     id="path40"

     style="fill:#ffffff;fill-rule:nonzero" /><path

     d="m 50341.852,-6804.3573 c 7.496,-114.9352 -49.972,-187.3943 -164.907,-194.8901 l -284.84,-19.9887 27.485,-404.7719 3048.282,214.8789 -79.955,1164.3437 -427.259,-29.9831 c 47.473,-659.6282 -204.885,-779.5606 -789.555,-819.5381 l -452.245,-32.4817 -62.465,874.5071 142.42,9.9944 c 267.349,17.4901 369.791,-79.955 389.78,-364.7944 l 7.496,-102.4423 379.785,27.4845 -97.445,1384.2198 -379.785,-27.4845 7.495,-109.9381 c 12.493,-169.9042 -37.479,-384.7831 -202.386,-397.276 l -274.845,-17.4902 -67.462,954.462 559.685,37.4789 c 482.228,34.9803 744.58,-47.4732 797.051,-787.0563 l 427.259,29.9831 -87.451,1241.8 -3045.783,-212.3803 27.484,-404.7718 279.843,19.9887 c 114.935,7.4958 184.895,-54.969 192.391,-172.4028 l 129.927,-1866.4479 z"

     id="path42"

     style="fill:#ffffff;fill-rule:nonzero" /><path

     d="m 55853.745,-4685.5516 9.994,0 227.372,-1496.6564 c 14.992,-112.4366 -37.479,-189.8929 -149.915,-207.3831 l -279.843,-42.476 62.465,-399.7747 1399.211,212.3803 -59.966,399.7747 -272.346,-42.4761 c -114.935,-17.4901 -187.395,42.4761 -204.885,154.9127 l -369.791,2431.1296 -916.983,-139.9211 -926.978,-2433.6282 -7.496,0 -249.859,1659.0648 c -17.49,114.9352 34.981,192.3915 149.916,209.8817 l 277.343,42.476 -62.464,402.2733 -1404.209,-212.3803 59.966,-399.7747 277.344,42.4761 c 112.437,17.4901 189.893,-39.9775 204.885,-154.9127 l 282.34,-1851.4564 c 17.49,-112.4366 -37.479,-189.8929 -149.915,-207.3831 l -279.842,-42.476 59.966,-399.7747 1464.174,219.8761 864.513,2256.2282 z"

     id="path44"

     style="fill:#ffffff;fill-rule:nonzero" /><path

     d="m 57168.004,-5410.1432 262.352,-1136.8591 2975.823,687.1127 -262.352,1136.8591 -417.265,-94.9465 c 104.941,-457.2422 37.479,-774.5633 -477.231,-891.9972 l -462.24,2001.3719 c -27.484,112.4366 17.491,192.3916 132.426,219.8761 l 267.349,62.4648 -89.949,392.2788 -1736.521,-399.7746 89.949,-394.7775 277.344,62.4648 c 112.436,27.4845 192.391,-24.9859 217.377,-137.4225 l 462.24,-2001.3719 c -514.71,-117.4338 -714.598,137.4225 -819.538,594.6648 l -417.265,-94.9465 z"

     id="path46"

     style="fill:#ffffff;fill-rule:nonzero" /><path

     d="m 61048.317,-5062.8389 c 32.482,-109.9381 -4.997,-194.8902 -114.935,-229.8705 l -272.347,-84.9521 122.431,-387.2817 2918.355,916.9831 -349.803,1114.3719 -409.769,-127.4282 c 199.888,-632.1437 -14.991,-804.5465 -577.174,-981.9465 l -434.755,-137.4225 -262.352,837.0282 137.422,42.476 c 254.856,79.955 377.287,7.4958 462.24,-264.8507 l 29.983,-94.9465 364.794,112.4367 -414.766,1324.2535 -364.795,-112.4366 32.482,-104.9409 c 49.972,-162.4084 52.471,-384.7831 -104.941,-432.2563 l -262.352,-82.4535 -287.338,911.9859 534.699,169.9042 c 459.741,144.9183 737.084,124.9296 959.459,-582.1718 l 407.27,127.4282 -372.29,1189.3295 -2913.358,-914.4845 119.933,-387.2817 267.349,84.9521 c 109.938,34.9803 192.392,-12.4929 224.873,-122.4309 l 562.183,-1786.493 z"

     id="path48"

     style="fill:#ffffff;fill-rule:nonzero" /><path

     d="m 58184.931,1006.24 2753.448,-2418.6366 -712.099,-142.4197 -2443.622,2161.28167 c 77.456,69.96057 229.87,207.3831 402.273,399.77463 z"

     id="path50"

     style="fill:#ffffff;fill-rule:nonzero" /><path

     d="m 49472.342,22876.412 c -24.986,179.899 -52.47,377.287 -77.456,544.693 2341.18,1061.902 5022.169,2001.372 8085.442,2753.448 74.958,-157.411 142.42,-312.324 209.882,-469.735 -3130.735,-767.068 -5851.702,-1734.023 -8217.868,-2828.406 z"

     id="path52"

     style="fill:#ffffff;fill-rule:nonzero" /><path

     d="m 46519.007,21344.776 c -936.972,-542.195 -1806.482,-1101.879 -2613.527,-1676.555 -49.972,132.425 -132.425,274.845 -264.851,419.763 l -32.481,47.473 c 777.062,549.69 1616.588,1084.389 2511.084,1604.096 94.947,-137.423 224.873,-269.848 399.775,-394.777 z"

     id="path54"

     style="fill:#ffffff;fill-rule:nonzero" /><path

     d="m 59581.644,17439.477 -44.975,-52.471 c -162.408,82.454 -357.299,152.415 -357.299,92.448 l -44.974,-9.994 c 87.45,829.532 284.839,4197.634 -1444.186,8237.856 102.442,24.986 199.887,49.972 299.831,74.958 l -174.902,477.231 c -112.436,-27.484 -219.876,-54.969 -332.312,-82.453 -817.04,1776.498 -2008.868,3662.935 -3750.386,5511.893 l 412.267,387.281 c 6071.578,-6443.867 5686.795,-13384.955 5539.378,-14724.2 l -59.966,54.969 -39.978,32.482 z"

     id="path56"

     style="fill:#ffffff;fill-rule:nonzero" /><path

     d="m 57990.041,25779.776 c -99.944,-24.986 -197.389,-49.972 -299.831,-74.958 -67.462,154.913 -137.423,312.324 -209.882,469.735 112.437,27.485 219.876,57.468 332.313,82.454 l 174.901,-477.231 z"

     id="path58"

     style="fill:#ffffff;fill-rule:nonzero" /><path

     d="m 63329.531,13376.767 c -1074.394,959.459 -2383.656,2111.31 -4022.732,3555.496 l 194.89,32.481 232.369,34.981 7.495,232.369 -64.963,69.96 4.997,47.474 c 1426.696,-1254.293 2601.034,-2291.209 3590.476,-3170.713 l 54.969,-802.048 z"

     id="path60"

     style="fill:#ffffff;fill-rule:nonzero" /><polygon

     points="36692,16358 36636,16392 36654,16413 36670,16400 36694,16377 "

     transform="matrix(2.4985916,0,0,2.4985916,-32001.731,-23569.907)"

     id="polygon62"

     style="fill:#ffffff;fill-rule:nonzero" /><path

     d="m 59134.396,17469.46 c -12.493,-122.431 -24.986,-189.893 -24.986,-197.389 l 262.352,-74.958 -159.91,-179.898 39.978,-34.98 57.467,-49.972 c -1519.144,-239.865 -2913.358,-622.15 -4185.141,-1119.369 -82.453,184.896 -167.405,347.304 -254.856,489.724 1299.268,512.211 2715.969,914.484 4267.594,1164.343 z"

     id="path64"

     style="fill:#ffffff;fill-rule:nonzero" /><path

     d="M 42931.029,2288.0175 C 42243.917,369.09917 41954.08,-1080.0839 41876.624,-1502.3459 l -82.454,99.9436 -427.259,-367.2929 77.456,-89.9493 c -4395.022,119.9324 -7665.679,1216.81408 -10031.845,2526.07607 l 0,649.63383 c 2293.707,-1319.2563753 5526.885,-2463.6113 9931.902,-2601.0339 107.439,567.18033 434.755,2063.83669 1136.859,3977.7578 127.428,-137.4225 297.332,-279.8422 447.248,-402.2732 z"

     id="path66"

     style="fill:#ffffff;fill-rule:nonzero" /><polygon

     points="29559,8783 29544,8685 29445,8687 29394,8689 29363,8725 29534,8872 29568,8833 "

     transform="matrix(2.4985916,0,0,2.4985916,-32001.731,-23569.907)"

     id="polygon68"

     style="fill:#ffffff;fill-rule:nonzero" /><path

     d="m 59109.41,17274.57 c 2.498,4.997 12.493,74.958 24.986,197.389 l 44.974,7.495 c 0,62.465 197.389,-7.495 357.299,-92.448 l -164.907,-187.394 -262.352,74.958 z"

     id="path70"

     style="fill:#ffffff;fill-rule:nonzero" /><path

     d="m 59211.852,17017.215 159.91,182.397 279.842,-79.955 c 2.499,4.997 12.493,72.459 24.986,184.896 l 64.963,-69.961 -7.495,-232.369 -229.871,-34.98 -194.89,-32.482 -54.969,49.972 -39.977,34.98 z"

     id="path72"

     style="fill:#ffffff;fill-rule:nonzero" /><path

     d="m 59371.762,17199.612 164.907,187.394 142.42,-84.952 c -12.493,-112.436 -24.986,-179.898 -24.986,-184.895 l -279.842,79.954 z"

     id="path74"

     style="fill:#ffffff;fill-rule:nonzero" /><polygon

     points="28085,15171 28140,15236 "

     transform="matrix(2.4985916,0,0,2.4985916,-32001.731,-23569.907)"

     id="polygon76"

     style="fill:#ffffff;fill-rule:nonzero" /><polygon

     points="28085,15171 28140,15236 "

     transform="matrix(2.4985916,0,0,2.4985916,-32001.731,-23569.907)"

     id="polygon78"

     style="fill:#e41d2d;fill-rule:nonzero" /><path

     d="m 37711.471,13756.553 c -162.408,-209.882 -317.321,-419.764 -469.735,-627.147 127.428,292.336 302.33,492.223 469.735,627.147 z"

     id="path80"

     style="fill:#ffffff;fill-rule:nonzero" /><path

     d="m 38308.635,14498.635 -137.423,-162.409 c -157.411,-194.89 -309.825,-384.783 -459.741,-577.175 -162.408,-209.881 -319.819,-419.763 -469.735,-627.146 -422.262,-577.175 -804.546,-1141.856 -1146.853,-1689.048 C 32766.759,6143.3443 32579.364,2235.5471 32576.866,2190.5724 l -704.603,-702.1042 c 12.493,192.3916 312.324,4799.7944 3705.411,10214.2428 1249.296,1996.374 2983.319,4232.614 5444.431,6391.397 47.474,-199.887 94.947,-342.307 152.414,-452.245 l 17.491,-34.98 42.476,-77.457 C 40110.119,16522.494 39143.164,15500.57 38311.133,14498.635 z"

     id="path82"

     style="fill:#ffffff;fill-rule:nonzero" /><path

     d="m 44630.072,18416.426 c 789.555,37.479 2718.467,487.226 3120.74,619.651 402.274,134.924 679.617,-427.259 916.984,-669.623 239.864,-244.862 29.983,-639.639 -324.817,-1426.695 -354.8,-789.555 -624.648,-1888.936 -624.648,-1888.936 0,0 -362.296,-252.357 -679.617,-227.372 -319.82,24.986 -479.73,-107.439 -564.682,-69.96 -244.862,104.941 -49.972,712.099 0,1099.38 52.471,384.783 409.769,1324.254 362.296,1581.609 -49.972,257.355 -244.862,334.811 -487.225,394.777 -242.364,59.966 -1539.133,-149.915 -1539.133,-149.915 0,0 -1261.789,-267.35 -2018.862,-347.305 -752.076,-79.954 -916.983,439.753 -1011.929,622.15 -92.448,182.397 -174.902,699.605 -202.386,867.011 -29.983,164.907 -79.955,209.882 -352.302,709.6 -272.346,499.718 -172.403,659.628 -182.397,794.552 -9.994,137.423 37.479,154.913 157.411,224.873 119.933,69.961 222.375,-29.983 829.533,-324.817 607.157,-294.833 854.518,-432.256 847.022,-539.695 -9.994,-107.44 -49.972,-169.905 -82.453,-219.876 -32.482,-52.471 -217.378,-227.372 -269.848,-367.293 l -4.997,-57.468 c 102.442,29.983 209.881,57.468 317.321,82.454 417.265,99.943 299.831,497.219 299.831,497.219 374.789,-407.27 -4.997,-699.605 -294.834,-847.022 92.448,-17.49 192.392,-42.476 287.338,-69.961 319.82,-84.952 397.276,232.369 397.276,232.369 117.434,-529.701 -497.22,-487.225 -689.611,-462.239 l 167.405,-119.933 c 149.916,-97.445 837.029,24.986 1624.085,62.465 z m 3717.904,-19461.5297 c -132.425,94.94651 -99.944,-64.9633 -99.944,-64.9633 0,0 112.437,-469.7353 254.857,-529.7015 l 347.304,777.06202 c 0,0 -244.862,-364.79442 -504.716,-182.39722 z m -537.197,1644.0733 c -7.496,132.42535 -47.474,417.2648 -219.876,482.2282 -322.319,119.9324 -497.22,-19.9888 -579.674,-124.92961 -314.822,184.89581 -642.138,382.28451 -642.138,382.28451 257.355,-309.8254 904.49,-904.49015 1201.823,-1009.43099 209.882,-74.95775 524.704,224.87324 524.704,224.87324 0,0 -144.918,19.98873 -282.341,42.47605 z m -3298.141,2243.7352 -124.93,-159.9098 244.862,-97.4451 c 0,0 52.471,179.8986 -117.434,257.3549 z M 56183.559,14181.313 c 1404.209,-467.236 167.406,-1419.2 767.068,-2431.129 797.05,-1341.744 1699.042,-434.755 1731.524,-2598.5354 7.495,-504.7155 -97.445,-929.4761 499.718,-1596.6 862.014,-964.4564 -177.4,-3068.2705 -177.4,-3068.2705 0,0 352.301,1861.4507 -649.634,2443.6226 -684.614,394.7774 -819.538,974.4507 -889.498,1581.6084 -67.462,607.1578 -84.953,644.6367 -84.953,644.6367 0,0 49.972,-362.2958 -39.977,-1094.3831 -92.448,-744.5803 -182.397,-946.9663 2.499,-1798.986 157.411,-729.5887 679.616,-1424.1972 1079.391,-2656.0028 399.775,-1231.8057 -1126.865,-2506.0874 -1126.865,-2506.0874 916.983,1214.3155 372.29,2708.4733 -447.248,3320.6282 -817.039,612.155 -842.025,1551.6254 -842.025,1551.6254 0,0 -314.822,-739.5831 649.634,-2231.2423 1044.411,-1626.5831 -637.141,-2790.92679 -951.964,-3160.71834 -312.323,-369.79156 532.2,-489.723955 512.212,-1299.26763 -19.989,-809.54363 -1021.924,-1206.81973 -1021.924,-1206.81973 177.4,224.8732 489.724,904.4902 494.721,1161.84508 14.991,699.605647 -357.299,647.13522 -357.299,647.13522 -374.788,-14.99155 -434.755,-464.73803 -434.755,-464.73803 0,0 -247.36,367.29296 584.671,1514.1465 832.031,1144.35493 -157.411,2755.94653 -157.411,2755.94653 -82.454,-1516.6451 -562.184,-2011.3662 -562.184,-2011.3662 0,0 307.327,659.6281 -487.225,2675.9915 -602.16,1526.6395 -64.963,1866.448 474.732,2541.0677 1823.972,2276.2169 1481.665,3333.1216 1284.277,3498.0286 -194.891,162.408 -394.778,134.924 -602.161,-32.482 -602.161,-429.7578 -184.896,-1649.0705 -362.296,-2241.2367 -162.408,-544.693 -582.172,-779.5606 -901.991,-882.0029 l -37.479,-12.4929 c -207.383,-62.4648 -362.296,-67.462 -362.296,-67.462 134.924,112.4366 239.865,209.8817 322.318,309.8254 87.451,109.938 144.919,224.8732 179.899,362.2957 l 22.487,107.4395 c 42.476,269.8479 17.49,632.1436 -44.974,1216.8141 -129.927,1231.8058 -199.888,1421.6988 719.594,2261.2258 1259.29,1151.85 332.313,2378.659 -192.392,2511.084 l -9.994,-194.89 c -304.828,-1369.228 -1948.901,-1851.456 -2720.966,-2091.321 -1024.423,-319.82 -2930.848,-3328.1242 -2930.848,-3328.1242 -332.313,-577.1746 -197.389,-956.9606 -197.389,-956.9606 139.921,444.7493 594.665,639.6395 594.665,639.6395 359.797,174.9014 769.566,-129.9268 1314.259,-122.431 542.194,4.9972 502.217,782.0592 502.217,782.0592 l 112.437,-499.7184 c 237.366,-1124.3662 -924.479,-782.0591 -1486.662,-939.4704 -564.682,-157.4113 104.94,-916.9831 104.94,-916.9831 672.122,839.5268 1414.203,312.3239 1414.203,312.3239 0,0 -664.625,-59.9662 -834.529,-729.5887 -167.406,-672.1211 462.239,-359.7972 462.239,-359.7972 594.665,159.9099 682.116,692.1099 682.116,692.1099 357.298,1101.8789 1431.693,619.6507 1431.693,619.6507 -906.989,14.9915 -874.507,-1001.9352 -874.507,-1001.9352 -182.398,-1101.8789 -354.8,-1104.3775 -709.6,-1366.7296 -354.8,-262.3521 -242.364,-906.9888 297.332,-812.0423 319.82,24.9859 564.682,212.3803 602.161,622.1493 57.467,669.6226 687.112,639.6395 687.112,639.6395 -367.293,-219.8761 -194.89,-1109.3747 -194.89,-1109.3747 57.468,-834.5296 -424.76,-919.4817 -649.634,-969.4535 -1219.312,-272.3465 -702.104,-1261.7888 -702.104,-1261.7888 727.09,1016.9268 1726.527,177.4 1726.527,177.4 -684.614,227.3719 -797.051,-12.4929 -951.964,-754.57464 C 52310.742,369.09917 51743.562,64.270997 51333.793,-78.148723 l 132.425,-94.946477 C 52658.046,-1142.5487 53112.79,34.287898 53112.79,34.287898 53127.782,-1572.3065 51698.587,-1279.9713 51003.979,-1032.6107 c -692.11,242.36338 -864.513,-1111.8733 -2166.279,-737.0845 l -39.978,12.4929 c -142.419,-309.8253 -302.329,-557.1859 -427.259,-477.231 -114.935,74.9578 -262.352,432.2564 -397.276,837.0282 l -144.918,72.4592 c -114.935,32.4817 -229.871,77.4563 -342.307,129.9267 -69.961,-197.3887 -207.383,-557.1859 -302.33,-494.7211 -104.941,67.462 -267.349,657.1296 -322.318,872.00847 -567.18,417.26479 -969.454,911.985926 -969.454,911.985926 -179.898,319.819724 -307.326,682.115504 -609.656,991.940904 -302.33,309.8253 -1139.358,1126.8648 -1224.31,1196.8253 -139.921,117.4338 -229.87,144.9183 -492.222,372.2902 -229.871,199.8873 -17.491,477.231 112.436,814.5408 132.426,337.3099 379.786,584.6705 674.62,519.7071 369.791,-79.955 277.344,-189.893 577.175,-369.7916 314.822,-184.8958 614.653,-144.9183 1371.726,-144.9183 597.164,0 1609.093,-504.7155 1946.403,-842.0254 334.811,-337.3098 462.24,-1341.7436 462.24,-1341.7436 0,0 -24.986,227.3718 -64.964,559.6845 -44.974,357.2986 -39.977,652.1324 -277.343,994.4394 -179.899,259.8536 -1379.223,901.9916 -1696.544,1001.9353 -317.321,99.9436 -1184.333,-47.4733 -1436.69,24.9859 -254.857,74.9577 -557.186,412.2676 -557.186,412.2676 L 43113.426,5288.826 C 41781.677,6488.15 41909.105,7337.6711 41909.105,7337.6711 l 254.857,-104.9408 c -424.761,722.0929 -1409.206,597.1633 -1968.89,589.6676 -559.685,-7.4958 -1579.11,-74.9578 -1579.11,-74.9578 -744.581,399.7747 -667.124,614.6535 -559.685,862.0141 104.941,247.3606 17.49,1021.924 17.49,1021.924 0,0 -209.881,1184.3328 -307.326,2386.1548 -99.944,1201.823 572.177,1286.775 747.078,1449.183 174.902,162.409 134.924,279.843 214.879,467.237 79.955,184.896 182.397,39.977 364.795,119.932 182.397,79.955 587.169,414.766 587.169,414.766 0,0 164.907,-74.957 252.357,-427.259 87.451,-354.8 -169.904,-1121.867 -169.904,-1121.867 l -129.927,82.453 c -129.926,79.955 -192.391,74.958 -407.27,32.482 -212.38,-44.975 -232.369,-224.873 -267.349,-589.668 l -42.476,-204.884 224.873,-144.919 c 249.859,-169.904 417.265,74.958 417.265,74.958 -44.975,-317.321 -284.84,-329.814 -487.226,-277.343 l 132.426,-202.386 c 164.907,-262.352 414.766,-47.474 414.766,-47.474 -292.335,-597.163 -792.054,77.457 -792.054,77.457 l -189.893,57.467 -32.481,-42.476 c -142.42,-189.893 -119.933,-487.225 -117.434,-936.972 0,-449.746 212.38,-1244.2982 357.298,-1504.1517 142.42,-259.8535 687.113,-464.738 687.113,-464.738 0,0 1409.206,-147.4169 2243.735,179.8986 832.031,324.8169 1384.22,462.2394 1384.22,462.2394 3145.727,584.6707 3233.178,-1476.6676 3233.178,-1476.6676 447.248,2938.3433 -4225.119,1898.9296 -4225.119,1898.9296 352.302,946.9657 824.536,1389.2167 824.536,1389.2167 2438.625,3280.651 3867.819,3113.245 3867.819,3113.245 767.068,-32.481 901.992,172.403 901.992,172.403 l 94.946,-204.884 2.499,0 c 222.375,-1966.392 1788.991,-1714.034 1788.991,-1714.034 -2406.143,1036.915 -1066.898,3475.541 -1066.898,3475.541 454.744,1439.188 869.51,2156.284 1109.375,2713.47 172.402,394.778 -87.451,654.631 -252.358,769.566 l -124.93,162.409 c -512.211,654.631 -2196.262,2011.366 -2196.262,2011.366 -807.045,424.761 -534.698,954.462 -442.251,1376.724 92.448,427.259 517.209,877.006 517.209,877.006 l 19.989,299.831 c -7.496,539.695 644.636,1094.383 644.636,1094.383 0,0 477.231,-692.11 704.603,-1244.299 224.873,-554.687 34.98,-507.214 -117.434,-519.707 -154.912,-9.994 -309.825,-19.989 -579.673,-109.938 -257.355,-84.952 -262.352,-204.884 -62.465,-412.268 42.476,-24.985 119.933,-59.966 222.375,-39.977 147.417,27.484 522.206,7.496 449.746,-259.854 0,0 -142.419,199.888 -402.273,67.462 l -32.482,-14.991 c 12.493,-17.49 114.936,-147.417 294.834,-159.91 187.395,-12.493 642.138,-162.408 487.226,-487.225 0,0 -124.93,307.326 -477.231,219.876 -169.905,-42.476 -282.341,-54.969 -369.792,-44.975 34.98,-117.434 82.454,-264.851 137.423,-422.262 127.428,-369.791 1419.2,-1234.304 2253.729,-1629.082 837.028,-394.777 629.645,-949.464 629.645,-949.464 124.93,-1731.524 1009.431,-2171.276 1009.431,-2171.276 1551.626,-664.626 2048.845,-624.648 2541.068,-1818.975 127.428,-304.828 202.386,-587.169 242.363,-847.023 0,0 249.86,-212.38 1116.871,179.899 1344.242,609.656 2978.321,34.98 2576.048,-1126.865 -762.071,-2218.749 649.634,-2493.594 649.634,-2493.594 -1481.665,-439.752 -1759.009,1089.386 -1446.685,2161.281 244.862,844.524 -802.048,1014.429 -1156.848,1029.42 -887,47.473 -1111.873,-42.476 -1111.873,-42.476 0,0 297.332,44.975 782.059,-114.935 z M 37931.348,6043.4007 c -97.446,-77.4564 -399.775,-402.2733 -467.237,-514.7099 l -19.989,-62.4648 -4.997,12.493 19.989,22.4873 c 0,0 134.924,-39.9775 257.355,44.9746 124.929,82.4536 474.732,212.3803 519.707,-62.4648 0,0 -212.381,127.4282 -394.778,-94.9464 -157.411,-194.8902 -244.862,-244.862 -369.791,-249.8592 54.969,-94.9465 109.938,-267.3493 317.321,-442.2507 212.38,-179.8986 484.727,-454.7437 484.727,-454.7437 764.569,-799.5493 1569.115,-877.0056 1569.115,-877.0056 487.225,-39.9775 612.155,332.3127 911.986,1409.2056 299.831,1076.893 772.065,1674.0564 772.065,1674.0564 0,0 192.391,-382.2845 387.282,-649.6338 197.388,-267.3493 632.143,-699.6057 634.642,-747.0789 4.997,-47.4732 9.994,-144.9183 -659.628,-797.0507 -672.122,-652.1324 -782.06,-1219.3127 -911.986,-1701.5409 -129.927,-482.2282 -507.214,-302.3296 -787.057,-282.3408 -277.343,17.4901 -337.31,-47.4733 -684.614,47.4732 -349.803,94.9465 -882.003,882.0028 -989.442,994.4395 -109.938,114.9352 -724.592,607.1577 -1339.245,916.9831 -614.654,312.3239 -777.062,822.0366 -752.076,994.4394 24.986,172.4028 359.797,924.4789 367.293,1009.431 l 2.498,157.4113 c -4.997,437.2535 207.383,974.4507 207.383,974.4507 134.924,47.4732 549.691,-447.2479 549.691,-447.2479 534.698,-594.6648 472.233,-794.5521 379.786,-874.507 z"

     id="path84"

     style="fill:#ffffff;fill-rule:nonzero" /><path

     d="m 48865.184,-8038.6615 c 729.589,-532.2 1571.614,-1146.8535 2568.552,-1873.9437 l 37.479,-29.9831 -329.814,-454.7437 -39.977,27.485 c -1291.772,941.9686 -2333.685,1699.0418 -3188.203,2328.6869 164.907,-2.4986 327.315,-4.9972 494.721,-4.9972 154.913,0 304.828,2.4986 457.242,4.9972 z"

     id="path86"

     style="fill:#ffffff;fill-rule:nonzero" /><path

     d="m 41441.869,-1859.6445 129.926,-4.9972 247.361,-4.9972 37.479,244.862 22.487,124.9296 c 707.102,-829.5324 1149.352,-1394.2141 1491.659,-1833.9663 -262.352,27.4846 -524.704,57.4677 -782.059,87.4507 -292.335,369.7916 -654.631,817.0395 -1144.355,1389.217 z"

     id="path88"

     style="fill:#ffffff;fill-rule:nonzero" /></g>

</svg>