<?xml version="1.0" encoding="utf-8"?>

<!-- Generator: Adobe Illustrator 13.0.2, SVG Export Plug-In . SVG Version: 6.00 Build 14948)  -->

<!DOCTYPE svg PUBLIC "-//W3C//DTD SVG 1.0//EN" "http://www.w3.org/TR/2001/REC-SVG-20010904/DTD/svg10.dtd">

<svg version="1.0" id="Ebene_1" xmlns="http://www.w3.org/2000/svg" xmlns:xlink="http://www.w3.org/1999/xlink" x="0px" y="0px"

	 width="327.465px" height="347.587px" viewBox="0 0 327.465 347.587" enable-background="new 0 0 327.465 347.587"

	 xml:space="preserve">

<path fill-rule="evenodd" clip-rule="evenodd" fill="#D60C22" d="M163.739,345.406c0,0,39.649,1.98,79.513-17.98

	c43.582-21.816,62.914-60.297,62.914-94.504c0-30.918,0-120.383,0-120.383h21.299V38.863h-20.971c0,0-3.932-7.564-30.473-16.445

	C211.143,0.71,164.613,3.013,164.613,3.013h-1.762c0,0-46.529-2.303-111.408,19.405c-26.54,8.881-30.473,16.445-30.473,16.445H0

	v73.676h21.299c0,0,0,89.465,0,120.383c0,34.207,19.332,72.688,62.913,94.504c39.864,19.961,79.514,17.98,79.514,17.98H163.739

	L163.739,345.406z"/>

<path fill-rule="evenodd" clip-rule="evenodd" fill="#FFFFFF" stroke="#000000" stroke-width="0.6579" stroke-miterlimit="2.6131" d="

	M164.94,0.382c0,0,8.847-0.331,21.462,0.66c12.289,0.966,23.594,3.14,23.594,3.14l-0.328,337.748c0,0-8.662,3-22.117,4.461

	c-10.65,1.156-36.986,1.156-47.636,0c-13.456-1.461-22.118-4.461-22.118-4.461L117.47,4.182c0,0,11.303-2.174,23.592-3.14

	c12.615-0.991,21.462-0.66,21.462-0.66H164.94L164.94,0.382z"/>

<polygon fill-rule="evenodd" clip-rule="evenodd" points="151.15,37.704 151.15,14.64 159.268,14.64 159.268,17.436 153.854,17.436 

	153.854,24.301 158.875,24.301 158.875,27.056 153.854,27.056 153.854,37.704 151.15,37.704 "/>

<path fill-rule="evenodd" clip-rule="evenodd" d="M176.949,37.187c-0.828,0.537-1.887,0.805-3.176,0.805

	c-1.875,0-3.289-1.079-4.244-3.242c-0.955-2.161-1.432-5.007-1.432-8.536c0-2.337,0.146-4.364,0.438-6.082s0.857-3.097,1.703-4.137

	c0.844-1.04,2.023-1.561,3.535-1.561c1.49,0,2.561,0.225,3.205,0.672v2.854c-0.766-0.514-1.754-0.771-2.965-0.771

	c-1.35,0-2.236,0.782-2.66,2.347c-0.424,1.565-0.635,3.783-0.635,6.654c0,5.978,1.018,8.966,3.055,8.966

	c1.311,0,2.369-0.315,3.176-0.946V37.187L176.949,37.187z"/>

<path fill-rule="evenodd" clip-rule="evenodd" d="M162.317,112.211c-13.862-0.109-24.805,2.854-37.9,8.881

	c-11.911,5.481-18.192,11.402-18.192,11.402s-16.676-1.974-29.236,4.165c-12.562,6.141-27.787,16.238-26.854,47.364

	c0.649,21.707,14.954,44.496,29.887,59.859c13.211,13.598,21.108,15.305,21.44,22.367c0.216,4.605-2.383,3.289-2.383,8.77

	c0,4.387,5.116,3.922,6.931,1.977c3.682-3.949,7.148-16.398,4.114-29.82c-4.114-18.203-20.14-35.305-18.625-44.516

	c2.172-13.195,12.562-20.172,12.562-20.172s-2.126,6.699,0.433,14.473c3.248,9.867,6.931,17.32,12.128,23.898

	c4.954,6.27,8.064,24.117,9.313,45.609c0.648,11.184,1.299,33.332,5.63,39.469c4.331,6.141,21.44,14.914,24.905,16.445

	c3.466,1.535,6.93,0.879,6.93,0.879l0.306-0.004c0,0,3.466,0.656,6.931-0.879s20.572-10.305,24.906-16.445

	c4.33-6.137,4.98-28.285,5.631-39.469c1.248-21.492,4.355-39.336,9.311-45.609c5.199-6.578,8.879-14.031,12.129-23.898

	c2.559-7.773,0.432-14.473,0.432-14.473s10.391,6.977,12.561,20.172c1.518,9.211-14.508,26.313-18.623,44.512

	c-3.035,13.426,0.434,25.875,4.115,29.824c1.814,1.945,6.93,2.41,6.93-1.977c0-5.48-2.6-4.164-2.383-8.77

	c0.334-7.063,8.23-8.77,21.441-22.363c14.932-15.367,29.236-38.156,29.885-59.863c0.932-31.126-14.293-41.225-26.854-47.364

	c-12.561-6.139-29.236-4.166-29.236-4.166s-6.281-5.92-18.193-11.401c-13.096-6.027-24.037-8.99-37.898-8.881L162.317,112.211

	L162.317,112.211z"/>

<path fill-rule="evenodd" clip-rule="evenodd" fill="#FFFFFF" d="M141.038,278.309c-1.137,0.66-2.599,3.125,0.324,5.43

	c2.925,2.301,5.849,3.289,6.335,2.961c0.487-0.332-3.472-3.148-3.897-4.773c-0.649-2.465,0.378-2.168-0.326-3.289

	C142.338,276.828,141.038,278.309,141.038,278.309L141.038,278.309z"/>

<path fill-rule="evenodd" clip-rule="evenodd" fill="#FFFFFF" d="M111.802,178.484c0,0-4.386,7.73-3.736,13.816

	c0.65,6.082,6.381,18.156,8.934,22.527c6.335,10.855,9.583,27.301,9.583,27.301s0.865-0.641,1.787-4.109

	c1.138-4.277,2.762-5.43,2.762-5.43s-1.787-11.512-6.497-19.57c-4.711-8.055-6.985-15.785-5.686-22.199s2.437-7.07,2.437-7.07

	s-1.624-1.977-4.548-3.293C113.912,179.145,111.802,178.484,111.802,178.484L111.802,178.484z"/>

<path fill-rule="evenodd" clip-rule="evenodd" fill="#FFFFFF" d="M124.471,187.367c-0.727,1.102-4.872,8.223-2.437,13.32

	c2.437,5.098,6.173,8.715,7.31,12.332c1.137,3.621,1.949,6.746,2.274,2.797c0.324-3.945,0.649-16.773-2.274-22.367

	C126.42,187.859,125.121,186.379,124.471,187.367L124.471,187.367z"/>

<path fill-rule="evenodd" clip-rule="evenodd" d="M124.471,194.273c-0.339,1.203-0.325,5.262,1.137,7.234

	c1.462,1.977,3.481,3.707,2.762,0.496c-0.813-3.621-0.975-5.266-1.137-7.402C127.105,192.93,124.796,193.121,124.471,194.273

	L124.471,194.273z"/>

<path fill-rule="evenodd" clip-rule="evenodd" fill="#FFFFFF" d="M87.112,202.496c-1.387,11.707,11.208,22.035,18.679,40.621

	c4.745,11.801,2.274,20.391,2.274,20.391s-1.409-2.203-4.548-5.098c-4.052-3.73-8.757-6.758-14.943-12.5

	c-19.491-18.09-24.852-31.082-28.749-39.137c-5.561-11.496-8.122-32.893-1.138-47.529c7.807-16.359,25.664-23.846,44.18-23.023

	c0,0,5.849,2.631,9.097,9.538c3.249,6.907,4.454,14.896-3.898,26.643C105.143,176.512,89.063,186.051,87.112,202.496L87.112,202.496

	z"/>

<path fill-rule="evenodd" clip-rule="evenodd" fill="#FFFFFF" d="M164.265,188.41c-29.235,0-46.128-26.314-46.128-26.314

	s1.732-5.921-0.217-12.938c-2.355-8.478-8.446-13.814-8.446-13.814s19.004-18.855,53.872-19.075h0.433

	c34.866,0.22,53.853,19.071,53.853,19.071s-6.092,5.337-8.447,13.814c-1.949,7.018-0.217,12.938-0.217,12.938

	s-16.893,26.314-46.129,26.314L164.265,188.41L164.265,188.41z"/>

<path fill-rule="evenodd" clip-rule="evenodd" fill="#FFFFFF" d="M165.436,189.719c11.264,0,25.34-6.137,33.568-12.719

	c7.342-5.865,10.613-9.865,10.613-9.865s1.082,2.413,2.166,3.946c1.082,1.535,2.164,3.289,2.164,3.289s-9.119,1.931-15.158,8.552

	c-5.197,5.703-9.182,10.09-8.664,31.574c0.432,17.98,0.65,26.973,0.65,26.973s0.867-5.703,1.518-4.824

	c0.648,0.875,4.328,8.551,4.328,18.637c0,7.457-1.313,30.145-3.463,34.207c-3.25,6.141-5.793,8.707-16.895,15.129

	c-3.031,1.754-6.711,5.043-8.879,5.922c-2.02,0.82-3.418-4.168-3.247-9.867c0.217-7.234-0.589-7.438,4.114-9.43

	c5.305-2.246,8.879,2.852,17.543-3.289c6.299-4.465,5.523-9.316,2.814-12.059c-2.381-2.414-6.889-3.23-9.961,0.438

	c-1.518,1.809,0.107,2.992-2.492,6.414c-1.623,2.137-3.898,3.453-9.258,4.441c-2.402,0.441-3.354,2.137-3.354,2.137

	s-0.938-1.691-3.339-2.133c-5.36-0.988-7.635-2.305-9.259-4.441c-2.599-3.422-0.974-4.605-2.491-6.414

	c-3.073-3.668-7.579-2.852-9.961-0.438c-2.709,2.742-3.485,7.594,2.814,12.059c8.664,6.141,12.237,1.043,17.542,3.289

	c4.702,1.992,3.899,2.195,4.115,9.43c0.172,5.699-1.228,10.688-3.249,9.867c-2.165-0.879-5.847-4.168-8.879-5.922

	c-11.102-6.422-13.644-8.988-16.892-15.129c-2.149-4.063-3.466-26.75-3.466-34.207c0-10.086,3.682-17.762,4.331-18.637

	c0.65-0.879,1.516,4.824,1.516,4.824s0.217-8.992,0.65-26.973c0.518-21.484-3.465-25.871-8.663-31.574

	c-6.038-6.621-15.16-8.552-15.16-8.552s1.083-1.754,2.166-3.289c1.083-1.534,2.166-3.946,2.166-3.946s3.271,3.999,10.612,9.865

	c8.229,6.582,22.307,12.719,33.568,12.719L165.436,189.719L165.436,189.719z"/>

<path fill-rule="evenodd" clip-rule="evenodd" fill="#FFFFFF" d="M186.064,278.305c1.137,0.66,2.6,3.125-0.324,5.43

	c-2.924,2.301-5.848,3.289-6.334,2.957c-0.488-0.328,3.471-3.145,3.896-4.77c0.65-2.465-0.377-2.168,0.324-3.289

	C184.766,276.824,186.064,278.305,186.064,278.305L186.064,278.305z"/>

<path fill-rule="evenodd" clip-rule="evenodd" fill="#FFFFFF" d="M215.303,178.48c0,0,4.385,7.73,3.736,13.816

	c-0.65,6.082-6.383,18.156-8.936,22.527c-6.334,10.855-9.582,27.301-9.582,27.301s-0.863-0.641-1.787-4.109

	c-1.137-4.277-2.762-5.43-2.762-5.43s1.787-11.512,6.498-19.57c4.709-8.055,6.982-15.785,5.684-22.199s-2.436-7.07-2.436-7.07

	s1.623-1.977,4.547-3.293C213.189,179.141,215.303,178.48,215.303,178.48L215.303,178.48z"/>

<path fill-rule="evenodd" clip-rule="evenodd" fill="#FFFFFF" d="M202.633,187.363c0.727,1.102,4.873,8.223,2.436,13.32

	c-2.436,5.098-6.172,8.715-7.309,12.332c-1.139,3.621-1.949,6.746-2.273,2.797c-0.326-3.945-0.65-16.773,2.273-22.363

	C200.684,187.855,201.982,186.375,202.633,187.363L202.633,187.363z"/>

<path fill-rule="evenodd" clip-rule="evenodd" d="M202.633,194.27c0.34,1.207,0.324,5.262-1.139,7.234

	c-1.461,1.977-3.48,3.707-2.76,0.496c0.813-3.621,0.975-5.266,1.137-7.402C199.998,192.926,202.307,193.117,202.633,194.27

	L202.633,194.27z"/>

<path fill-rule="evenodd" clip-rule="evenodd" fill="#FFFFFF" d="M239.99,202.492c1.389,11.707-11.207,22.035-18.68,40.621

	c-4.744,11.801-2.271,20.391-2.271,20.391s1.408-2.203,4.547-5.098c4.051-3.73,8.756-6.758,14.943-12.5

	c19.492-18.09,24.85-31.082,28.748-39.137c5.561-11.496,8.123-32.893,1.137-47.529c-7.807-16.359-25.662-23.846-44.18-23.022

	c0,0-5.846,2.63-9.096,9.537c-3.248,6.907-4.453,14.896,3.9,26.643C221.961,176.508,238.041,186.047,239.99,202.492L239.99,202.492z

	"/>

<path fill-rule="evenodd" clip-rule="evenodd" fill="#FFFFFF" d="M163.544,313.719l-0.146,0.113c0,0-1.393,1.691-2.924,1.645

	c-3.788-0.109-7.255-2.961-13.427-7.125c-5.575-3.766-9.112-5.129-11.37-7.566c-1.624-1.754-2.229-2.316-1.191,0.66

	c1.95,5.59,3.249,5.699,13.645,11.73c6.43,3.727,9.962,6.141,14.293,6.141l2.256-0.008c4.33,0,7.863-2.41,14.293-6.137

	c10.395-6.031,11.695-6.141,13.643-11.73c1.039-2.977,0.434-2.414-1.191-0.66c-2.256,2.438-5.793,3.801-11.369,7.566

	c-6.172,4.164-9.637,7.016-13.427,7.125c-1.53,0.047-2.924-1.645-2.924-1.645L163.544,313.719L163.544,313.719z"/>

<path fill-rule="evenodd" clip-rule="evenodd" d="M96.554,81.513v21.598H85.741l-0.101-57.307h12.686

	c5.815,0,10.376,1.355,13.223,3.773c2.434,2.067,4.118,5.93,4.118,11.371c0,4.11-0.714,7.462-2.513,10.039

	c-1.528,2.192-4.03,4.698-8.081,5.043l14.09,27.08h-11.796L96.554,81.513L96.554,81.513z M96.607,69.178h2.622

	c3.276-0.164,5.353-1.534,5.242-7.564c-0.081-4.498-1.911-6.194-5.843-6.249h-2.075L96.607,69.178L96.607,69.178z"/>

<path fill-rule="evenodd" clip-rule="evenodd" d="M65.134,45.342c7.201,0,12.028,2.539,14.483,7.618

	c2.451,5.078,3.682,12.288,3.682,21.632c0,8.881-1.451,15.974-4.352,21.285c-2.901,5.312-7.504,7.964-13.813,7.964

	c-6.185,0-10.724-2.696-13.624-8.094s-4.348-12.448-4.348-21.155c0-6.093,0.461-11.245,1.386-15.453

	c0.925-4.207,2.724-7.558,5.4-10.054C56.624,46.591,60.354,45.342,65.134,45.342L65.134,45.342z M65.105,54.44

	c-3.121,0-5.189,1.704-6.213,5.111c-1.022,3.407-1.533,8.357-1.533,14.859c0,13.314,2.58,19.97,7.746,19.97

	c5.268,0,7.901-6.655,7.901-19.97c0-6.502-0.525-11.452-1.573-14.859C70.384,56.145,68.274,54.44,65.105,54.44L65.105,54.44z"/>

<path fill-rule="evenodd" clip-rule="evenodd" d="M11.413,102.995v-57.16h12.231c8.092,0,13.824,2.161,17.203,6.481

	c3.375,4.321,5.064,11.384,5.064,21.185c0,7.134-0.703,12.879-2.104,17.229c-1.4,4.349-3.726,7.481-6.974,9.395

	c-3.251,1.915-7.742,2.871-13.476,2.871H11.413L11.413,102.995z M24.306,93.486c4.236,0,7.087-1.31,8.548-3.93

	c1.461-2.621,2.191-7.965,2.191-16.034c0-7.396-0.854-12.212-2.558-14.448s-4.309-3.354-7.815-3.354h-2.851v37.767H24.306

	L24.306,93.486z"/>

<path fill-rule="evenodd" clip-rule="evenodd" d="M121.137,103.088v-57.16h12.231c8.091,0,13.823,2.162,17.201,6.481

	c3.376,4.322,5.065,11.384,5.065,21.185c0,7.134-0.704,12.879-2.104,17.229c-1.4,4.349-3.726,7.481-6.973,9.395

	c-3.252,1.916-7.742,2.871-13.477,2.871H121.137L121.137,103.088z M134.18,93.58c4.177,0,6.987-1.31,8.428-3.931

	s2.16-7.965,2.16-16.033c0-7.397-0.841-12.213-2.521-14.449c-1.68-2.236-4.247-3.354-7.704-3.354h-2.811V93.58H134.18L134.18,93.58z

	"/>

<path fill-rule="evenodd" clip-rule="evenodd" d="M169.016,81.513v21.598h-10.813l-0.1-57.307h12.685

	c5.816,0,10.377,1.355,13.223,3.773c2.436,2.067,4.119,5.93,4.119,11.371c0,4.11-0.715,7.462-2.512,10.039

	c-1.529,2.192-4.033,4.698-8.082,5.043l14.09,27.08h-11.797L169.016,81.513L169.016,81.513z M169.07,69.178h2.621

	c3.275-0.164,5.352-1.534,5.242-7.564c-0.082-4.498-1.91-6.194-5.842-6.249h-2.076L169.07,69.178L169.07,69.178z"/>

<polygon fill-rule="evenodd" clip-rule="evenodd" points="193.65,103.089 193.65,46.117 219.521,46.117 219.492,55.403 

	204.42,55.498 204.42,68.747 218.182,68.747 218.182,78.146 204.607,78.146 204.607,93.463 219.492,93.463 219.521,103.089 

	193.65,103.089 "/>

<path fill-rule="evenodd" clip-rule="evenodd" d="M248.98,101.878c-2.695,1.308-6.146,1.963-10.355,1.963

	c-6.115,0-10.734-2.678-13.857-8.037c-3.125-5.359-4.688-12.415-4.688-21.165c0-5.794,0.477-10.818,1.43-15.079

	c0.955-4.258,2.813-7.676,5.576-10.254c2.764-2.579,6.609-3.869,11.539-3.869c4.865,0,8.35,0.548,10.451,1.642v10.487

	c-2.498-1.275-4.857-2.726-8.801-2.726c-4.406,0-6.543,1.38-7.676,4.793c-1.031,3.101-1.686,7.413-1.686,14.565

	c0,14.891,3.557,20.205,7.678,20.205c4.27,0,7.664-1.724,10.297-3.29L248.98,101.878L248.98,101.878z"/>

<polygon fill-rule="evenodd" clip-rule="evenodd" points="251.416,103.049 251.389,46.117 262.213,46.1 262.213,66.277 

	273.201,66.277 273.201,46.1 283.779,46.117 283.809,103.143 273.105,103.143 273.105,76.837 262.309,76.837 262.277,103.049 

	251.416,103.049 "/>

<polygon fill-rule="evenodd" clip-rule="evenodd" points="295.137,102.86 295.137,55.874 284.65,55.874 284.646,46.022 

	316.695,46.022 316.67,55.874 306.184,55.874 306.184,102.955 295.137,102.86 "/>

<path fill-rule="evenodd" clip-rule="evenodd" fill="#FFFFFF" d="M12.725,101.772V47.339h11.269c7.454,0,12.735,2.059,15.849,6.172

	c3.11,4.116,4.666,10.842,4.666,20.174c0,6.795-0.647,12.266-1.938,16.408c-1.29,4.141-3.433,7.125-6.425,8.946

	c-2.996,1.824-7.134,2.733-12.416,2.733H12.725L12.725,101.772z M23.573,94.866c5.092,0,8.517-1.408,10.273-4.227

	c1.756-2.819,2.634-8.567,2.634-17.245c0-7.955-1.026-13.136-3.074-15.541s-5.179-3.607-9.394-3.607h-3.425v40.62H23.573

	L23.573,94.866z"/>

<path fill-rule="evenodd" clip-rule="evenodd" fill="#FFFFFF" d="M65.093,46.846c6.662,0,11.126,2.413,13.396,7.238

	c2.269,4.826,3.405,11.677,3.405,20.554c0,8.439-1.342,15.18-4.023,20.227c-2.684,5.046-6.94,7.566-12.778,7.566

	c-5.718,0-9.916-2.561-12.599-7.689c-2.683-5.13-4.022-11.829-4.022-20.104c0-5.789,0.429-10.684,1.283-14.683

	c0.854-3.998,2.519-7.182,4.995-9.554C57.225,48.032,60.673,46.846,65.093,46.846L65.093,46.846z M65.093,53.259

	c-3.594,0-5.977,1.817-7.153,5.45c-1.179,3.634-1.767,8.914-1.767,15.847c0,14.2,2.972,21.297,8.92,21.297

	c6.068,0,9.102-7.097,9.102-21.297c0-6.933-0.604-12.213-1.813-15.847C71.174,55.076,68.744,53.259,65.093,53.259L65.093,53.259z"/>

<path fill-rule="evenodd" clip-rule="evenodd" fill="#FFFFFF" d="M95.033,75.461v26.312H87.17V47.339h11.312

	c5.187,0,9.075,1.12,11.668,3.355c2.591,2.238,3.889,5.954,3.889,11.145c0,3.922-0.919,7.016-2.754,9.279

	c-1.836,2.267-4.56,3.563-8.172,3.893l13.754,26.762h-8.447L95.033,75.461L95.033,75.461z M95.033,71.02h2.897

	c2.693,0,4.714-0.645,6.06-1.939c1.347-1.295,2.02-3.759,2.02-7.396c0-2.755-0.586-4.764-1.756-6.031

	c-1.173-1.266-3.133-1.901-5.883-1.901h-3.338V71.02L95.033,71.02z"/>

<path fill-rule="evenodd" clip-rule="evenodd" fill="#FFFFFF" d="M122.536,101.772V47.339h11.269c7.454,0,12.735,2.059,15.849,6.172

	c3.11,4.116,4.667,10.842,4.667,20.174c0,6.795-0.647,12.266-1.938,16.408c-1.29,4.141-3.433,7.125-6.425,8.946

	c-2.996,1.824-7.133,2.733-12.416,2.733H122.536L122.536,101.772z M133.385,94.866c5.091,0,8.518-1.408,10.272-4.227

	c1.756-2.819,2.635-8.567,2.635-17.245c0-7.955-1.026-13.136-3.075-15.541c-2.047-2.405-5.178-3.607-9.392-3.607h-3.426v40.62

	H133.385L133.385,94.866z"/>

<path fill-rule="evenodd" clip-rule="evenodd" fill="#FFFFFF" d="M167.623,75.461v26.312h-7.865V47.339h11.313

	c5.186,0,9.074,1.12,11.668,3.355c2.592,2.238,3.889,5.954,3.889,11.145c0,3.922-0.92,7.016-2.754,9.279

	c-1.836,2.267-4.561,3.563-8.172,3.893l13.754,26.762h-8.447L167.623,75.461L167.623,75.461z M167.623,71.02h2.896

	c2.693,0,4.713-0.645,6.061-1.939c1.346-1.295,2.02-3.759,2.02-7.396c0-2.755-0.588-4.764-1.756-6.031

	c-1.174-1.266-3.135-1.901-5.883-1.901h-3.338V71.02L167.623,71.02z"/>

<polygon fill-rule="evenodd" clip-rule="evenodd" fill="#FFFFFF" points="194.961,101.772 194.961,47.339 218.209,47.339 

	218.209,53.917 202.824,53.917 202.824,70.198 216.971,70.198 216.971,76.612 202.824,76.612 202.824,95.03 218.209,95.03 

	218.209,101.772 194.961,101.772 "/>

<path fill-rule="evenodd" clip-rule="evenodd" fill="#FFFFFF" d="M247.682,100.563c-2.418,1.243-5.512,1.867-9.285,1.867

	c-5.484,0-9.627-2.549-12.428-7.649c-2.803-5.101-4.203-11.815-4.203-20.144c0-5.514,0.428-10.296,1.283-14.351

	c0.855-4.052,2.521-7.306,5-9.76s5.926-3.682,10.348-3.682c4.361,0,7.484,0.521,9.371,1.563v6.67

	c-2.24-1.212-5.127-1.819-8.662-1.819c-3.953,0-6.547,1.855-7.783,5.563c-1.238,3.711-1.855,8.968-1.855,15.774

	c0,14.172,2.975,21.256,8.93,21.256c3.828,0,6.924-0.742,9.285-2.232V100.563L247.682,100.563z"/>

<polygon fill-rule="evenodd" clip-rule="evenodd" fill="#FFFFFF" points="252.885,101.772 252.885,47.339 260.75,47.339 

	260.75,68.06 274.676,68.06 274.676,47.339 282.375,47.339 282.375,101.772 274.676,101.772 274.676,74.968 260.75,74.968 

	260.75,101.772 252.885,101.772 "/>

<polygon fill-rule="evenodd" clip-rule="evenodd" fill="#FFFFFF" points="296.658,101.772 296.658,54.082 285.959,54.082 

	285.959,47.339 315.385,47.339 315.385,54.082 304.686,54.082 304.686,101.772 296.658,101.772 "/>

</svg>
