<?xml version="1.0" encoding="UTF-8" standalone="no"?>

<!-- Created with Inkscape (http://www.inkscape.org/) -->

<svg

   xmlns:svg="http://www.w3.org/2000/svg"

   xmlns="http://www.w3.org/2000/svg"

   version="1.0"

   width="800"

   height="973.37201"

   viewBox="0 0 800 973.372"

   id="HQFL"

   xml:space="preserve"><defs

   id="defs68" />

<path

   d="M 779.084,165.667 L 776.427,155.527 L 769.153,147.982 C 675.936,51.218 548.288,0.046 400.009,0 C 251.815,-0.055 124.161,51.116 30.846,147.983 C 30.84,147.99 23.569,155.522 23.569,155.522 L 20.899,165.666 C 7.03,218.426 0,272.298 0,325.79 C 0,375.56 6.11,425.959 18.162,475.59 C 46.151,600.973 103.184,711.434 187.653,803.817 C 239.963,863.149 304.462,916.033 379.298,960.933 L 400,973.372 L 420.708,960.931 C 495.534,916.034 560.033,863.148 612.407,803.748 C 696.817,711.432 753.845,600.97 781.847,475.494 C 793.886,425.992 800,375.596 800,325.798 C 800,272.291 792.962,218.415 779.084,165.667 z "

   style="fill:#006d2c"

   id="path3" />

<path

   d="M 769.157,168.272 C 769.157,168.272 767.674,162.607 767.18,160.719 C 765.423,158.896 761.766,155.103 761.766,155.103 C 670.527,60.392 545.432,10.307 400.004,10.263 C 254.667,10.208 129.57,60.293 38.236,155.103 L 38.231,155.107 C 38.231,155.107 34.164,159.321 32.81,160.724 C 32.313,162.61 30.821,168.277 30.821,168.277 C 17.178,220.183 10.261,273.179 10.261,325.791 C 10.261,374.746 16.273,424.331 28.154,473.262 C 55.769,596.965 111.98,705.85 195.288,796.962 C 246.961,855.57 310.646,907.778 384.58,952.135 C 384.58,952.135 396.15,959.088 400,961.4 C 405.01,958.391 415.424,952.135 415.424,952.135 C 489.349,907.778 553.035,855.57 604.773,796.893 C 688.019,705.85 744.227,596.962 771.853,473.164 C 783.723,424.36 789.738,374.78 789.738,325.798 C 789.738,273.172 782.814,220.174 769.157,168.272 z "

   style="fill:#ffed00"

   id="path5" />

<path

   d="M 762.813,169.945 C 762.813,169.941 761.261,164.054 761.261,164.054 L 757.025,159.653 C 667.068,66.264 543.609,16.874 399.994,16.819 C 256.479,16.774 133.016,66.165 42.952,159.652 L 38.715,164.054 L 37.166,169.943 C 10.937,269.714 10.064,371.328 34.575,471.967 C 61.869,594.439 117.605,702.348 200.215,792.633 C 251.24,850.6 314.417,902.389 387.944,946.511 L 399.993,953.745 L 412.04,946.511 C 485.553,902.397 548.816,850.512 600.067,792.301 C 682.472,702.241 738.147,594.296 765.497,471.512 C 789.943,371.226 789.045,269.741 762.813,169.945 z M 758.657,469.917 C 731.561,591.554 676.451,698.419 594.844,787.609 C 544.025,845.328 481.319,896.747 408.427,940.489 C 408.427,940.489 402.925,943.791 399.993,945.552 C 397.541,944.081 391.558,940.489 391.558,940.489 C 318.65,896.741 256.032,845.417 205.439,787.943 C 123.624,698.527 68.452,591.697 41.413,470.373 C 29.701,422.282 23.847,373.982 23.847,325.779 C 23.847,274.192 30.551,222.717 43.956,171.73 C 43.956,171.73 44.725,168.806 45.041,167.608 C 45.902,166.714 48.009,164.523 48.009,164.523 L 48.009,164.524 C 136.717,72.444 258.431,23.797 399.992,23.842 C 541.655,23.895 663.364,72.542 751.965,164.524 C 751.965,164.524 753.905,166.537 754.935,167.609 C 755.251,168.806 756.024,171.733 756.024,171.733 C 769.444,222.792 776.156,274.3 776.156,325.869 C 776.156,373.936 770.325,422.057 758.657,469.917 z "

   style="fill:white"

   id="path7" />

<path

   d="M 79.436,166.604 C 52.835,267.79 52.192,368.972 76.836,470.153 C 82.576,495.925 89.52,520.944 97.625,545.244 L 193.591,545.244 L 193.591,86.247 C 176.911,93.191 160.936,101.085 145.646,109.856 C 121.741,126.613 99.668,145.599 79.436,166.604 z "

   style="fill:#006d2c"

   id="path9" />

<path

   d="M 722.854,184.013 C 689.471,149.359 650.564,120.523 606.434,98.575 L 606.434,545.245 L 709.74,545.245 C 715.67,526.257 720.871,506.818 725.308,486.899 C 748.612,391.267 748,279.678 722.854,184.013 z "

   style="fill:#006d2c"

   id="path11" />

<path

   d="M 567.114,793.525 C 632.902,721.609 680.431,639.076 709.739,545.245 L 97.625,545.245 C 89.52,520.945 82.576,495.926 76.836,470.154 C 52.192,368.972 52.835,267.791 79.436,166.605 C 99.665,145.603 121.733,126.62 145.634,109.865 C 121.299,123.819 98.702,140 77.865,158.234 C 71.692,163.949 65.666,169.83 59.814,175.903 C 34.361,272.744 33.744,369.578 57.338,466.411 C 63.387,493.546 70.817,519.813 79.6,545.245 C 109.603,632.106 155.556,709.121 217.494,776.833 C 267.777,833.934 328.611,883.597 400,926.438 C 462.573,888.887 517.033,846.091 563.399,797.642 L 563.399,797.641 C 564.636,796.259 565.896,794.908 567.114,793.525 z "

   style="fill:#003716"

   id="path13" />

<path

   d="M 740.178,175.902 C 658.249,90.843 543.522,40.285 400,40.239 C 265.161,40.194 157.725,83.918 77.39,158.643 C 155.7,89.912 258.74,49.966 386.833,50.011 C 528.608,50.069 641.926,100.004 722.854,184.013 C 748,279.678 748.612,391.266 725.307,486.898 C 698.946,605.256 646.212,707.055 567.114,793.524 C 565.896,794.907 564.635,796.258 563.399,797.639 C 569.931,790.812 576.306,783.877 582.514,776.832 C 662.581,689.296 715.961,586.223 742.653,466.41 C 766.255,369.577 765.638,272.744 740.178,175.902 z "

   style="fill:#b0da1f"

   id="path15" />

<path

   d="M 386.833,50.011 C 367.722,50.004 349.181,50.907 331.186,52.644 L 331.186,545.245 L 322.802,545.245 C 311.242,547.845 303.993,549.867 301.199,551.279 C 298.761,552.509 296.415,554.63 294.208,557.52 C 284.796,562.006 282.162,571.4 282.162,578.957 C 282.162,581.591 282.475,583.994 282.916,585.88 L 284.312,591.838 C 284.312,591.838 301.283,576.288 302.459,575.209 C 302.974,575.07 306.04,574.247 309.087,573.428 C 302.521,580.099 300.654,582.95 299.894,584.561 C 297.9,588.735 297.331,594.412 297.331,599.533 C 297.331,605.678 298.15,611.024 298.313,612.032 L 299.972,622.229 C 299.972,622.229 315.728,593.82 316.194,592.98 C 318.983,590.218 337.149,574.031 353.588,559.506 C 354.462,559.178 358.494,557.661 360.443,556.927 C 362.03,557.804 364.408,559.119 364.995,559.443 C 365.655,560.108 377.234,571.748 377.234,571.748 L 379.011,566.092 C 379.072,565.896 380.304,561.914 380.304,557.53 C 380.304,556.779 380.267,556.014 380.183,555.255 C 379.995,553.64 379.413,551.914 378.528,550.111 C 380.462,549.382 385.344,547.542 391.441,545.245 L 428.35,545.245 C 422.018,576.008 408.79,640.3 408.242,642.961 C 407.935,643.099 407.263,643.399 406.624,643.684 C 405.213,643.68 368.672,643.599 368.672,643.599 C 352.459,643.599 340.666,664.943 340.172,665.851 L 334.284,676.678 L 345.059,670.695 C 349.199,668.396 352.691,666.634 355.602,665.283 C 354.343,666.043 353.737,666.549 353.37,666.861 C 352.448,667.645 351.607,668.609 350.836,669.699 C 351.805,669.091 352.769,668.482 353.766,667.906 C 384.71,650.037 421.621,651.695 450.194,669.026 L 447.518,663.315 C 446.719,661.606 440.169,648.191 430.678,644.425 C 431.68,639.905 444.89,580.313 452.659,545.247 L 468.815,545.247 L 468.815,55.996 C 442.651,52.083 415.327,50.022 386.833,50.011 z "

   style="fill:#006d2c"

   id="path17" />

<path

   d="M 505.483,276.157 C 453.863,232.924 410.542,239.899 396.698,241.548 C 376.208,243.982 361.016,253.197 347.995,261.62 C 345.229,263.409 342.84,264.954 341.16,265.778 C 333.731,269.419 326.494,269.455 322.725,265.871 C 319.573,262.875 318.173,259.838 318.319,256.314 C 318.905,242.179 343.346,222.531 364.911,205.196 C 372.309,199.248 379.961,193.098 386.611,187.225 C 402.377,173.301 411.366,156.133 411.929,138.884 C 412.387,124.857 407.155,111.612 397.198,101.59 C 379.845,84.126 349.748,83.566 330.242,91.906 C 320.807,95.939 313.837,101.878 309.751,109.056 L 214.339,143.502 C 209.727,137.024 199.673,137.737 192.825,138.62 C 187.428,139.307 177.28,142.647 172.824,137.895 C 168.543,133.353 173.337,126.23 177.214,123.346 C 182.84,119.135 190.091,118.308 196.986,118.087 C 197.335,121.244 199.811,124.452 203.704,126.272 C 209.262,128.854 216.909,127.836 219.173,123.76 C 221.444,119.683 217.435,114.089 211.882,111.525 C 207.13,109.286 201.806,109.866 198.959,112.636 C 195.811,112.222 192.618,112.087 189.441,112.227 C 180.387,112.622 170.484,115.298 164.395,122.49 C 159.893,127.789 157.817,136.322 162.835,142.057 C 164.302,143.712 166.285,144.961 168.358,145.724 C 177.308,148.993 185.986,146.186 194.997,145.13 C 198.333,144.744 203.372,144.15 205.161,146.813 L 155.391,164.78 L 199.795,160.225 C 196.964,162.752 193.851,164.787 190.708,167.818 C 184.405,173.893 182.058,177.974 181.871,183.027 C 181.557,191.543 189.38,196.234 193.618,197.17 C 201.38,198.909 209.572,195.084 215.076,189.751 C 216.176,188.677 217.029,187.568 218.12,186.286 C 214.088,187.989 211.122,189.622 206.813,190.601 C 201.866,191.713 196.261,190.444 194.372,185.692 C 192.715,181.521 193.821,177.481 196.511,174.37 C 199.892,170.445 205.514,165.715 209.151,162 C 210.052,161.066 210.977,160.056 211.853,158.988 L 313.705,148.539 C 315.244,150.28 316.983,151.851 318.936,153.222 C 327.011,158.884 337.206,160.347 345.29,160.23 C 338.879,166.835 327.79,174.458 316.137,182.413 C 281.961,205.749 233.166,239.066 233.166,292.391 C 233.166,302.796 234.929,316.46 241.526,331.752 C 242.06,330.837 250.34,324.889 251.809,323.797 C 250.692,327.996 250.197,331.888 250.197,335.494 C 250.197,352.722 263.19,366.7 274.734,375.695 C 274.734,375.695 277.852,368.458 277.974,368.163 C 282.539,389.603 293.147,398.888 310.689,407.734 C 310.946,402.401 312.5,392.488 312.922,389.321 C 345.392,435.781 391.54,455.285 436.314,474.131 C 439.442,475.448 442.573,476.765 445.71,478.092 L 439.883,506.961 L 342.619,544.717 C 327.904,547.677 307.65,552.032 302.814,554.474 C 300.443,555.67 298.345,557.842 296.561,560.31 C 282.021,566.356 286.404,585.06 286.404,585.06 L 300.685,571.975 L 321.542,566.368 C 312.924,574.398 304.817,582.524 303.133,586.088 C 299.099,594.539 301.85,611.455 301.85,611.455 L 313.307,590.803 C 315.799,588.149 344.846,562.449 351.71,556.385 L 360.731,552.992 L 367.174,556.554 L 375.593,565.018 C 375.593,565.018 377.123,560.142 376.621,555.651 C 376.31,552.969 374.595,550.122 373.268,548.263 L 436.269,524.524 C 436.269,524.524 416.03,622.957 411.38,645.482 C 410.253,645.985 408.9,646.59 407.382,647.266 C 395.56,647.248 375.43,647.181 368.671,647.181 C 354.4,647.181 343.317,667.562 343.317,667.562 C 361.283,657.586 367.62,657.299 367.62,657.299 C 368.985,657.382 373.443,657.588 379.06,657.832 C 370.391,659.904 361.871,663.222 353.763,667.904 C 308.633,693.962 293.159,751.856 319.168,797.008 C 345.272,842.16 403.143,857.643 448.291,831.6 C 493.421,805.514 508.971,747.621 482.928,702.491 C 472.882,685.109 458.119,672.142 441.192,664.225 L 444.271,664.831 C 444.271,664.831 436.287,647.791 426.426,647.037 L 455.16,517.404 C 455.16,517.404 464.533,513.551 471.584,510.944 C 480.113,507.789 484.106,501.968 484.829,496.118 C 518.808,513.889 550.009,538.199 570.747,582.933 C 572.049,577.506 578.571,558.832 581.471,551.587 C 589.12,564.873 603.696,589.543 611.027,606.601 C 610.377,448.638 568.517,328.942 505.483,276.157 z M 459.132,499.494 L 462.257,485.269 C 464.696,486.36 467.132,487.465 469.56,488.595 C 468.499,497.979 459.132,499.494 459.132,499.494 z "

   style="fill:#00210d"

   id="path19" />

<path

   d="M 306.156,131.936 L 261.701,139.919 L 305.675,127.726 C 305.632,127.083 305.597,126.437 305.579,125.779 C 305.534,124.033 305.631,122.322 305.849,120.647 L 216.164,150.342 C 216.142,150.534 216.11,150.724 216.076,150.914 L 307.763,138.308 C 307.059,136.301 306.524,134.173 306.156,131.936 z "

   style="fill:white"

   id="path21" />

<path

   d="M 448.328,437.664 C 403.77,417.623 356.418,386.755 330.118,336.607 C 358.421,375.774 413.987,409.442 470.784,429.003 L 472.922,419.576 C 515.38,442.814 563.549,487.689 601.421,566.638 C 593.898,540.072 569.71,464.934 492.421,412.636 C 499.197,412.543 505.545,411.522 511.301,409.567 C 569.583,452.322 593.952,519.413 597.932,531.356 C 597.823,530.446 597.722,529.517 597.612,528.609 C 586.937,477.527 559.87,432.593 524.72,402.391 C 526.594,400.914 528.35,399.286 529.954,397.478 C 532.109,395.05 533.927,392.399 535.438,389.567 C 559.47,414.516 579.196,445.65 588.896,473.101 C 587.561,466.235 586.145,459.515 584.649,452.95 C 572.168,409.437 549.316,381.236 540.636,371.918 C 542.722,351.775 534.405,327.126 517.553,304.066 C 511.466,297.115 505.089,290.836 498.423,285.254 C 451.812,246.213 414.471,250.99 397.559,253.004 C 379.474,255.153 366.236,262.098 354.027,269.998 C 350.983,271.968 348.353,273.669 346.116,274.764 C 334.558,280.429 322.245,280.512 315.175,273.792 C 309.835,268.715 308.004,262.443 308.277,255.878 C 309.058,237.015 332.827,217.612 358.381,197.069 C 366.024,190.925 373.243,185.122 379.712,179.409 C 393.303,167.406 401.046,152.891 401.516,138.541 C 401.877,127.412 397.719,116.897 389.804,108.932 C 376.204,95.243 350.924,94.396 334.341,101.485 C 327.336,104.479 315.64,111.582 316.001,125.505 C 316.23,134.361 319.149,140.635 324.923,144.686 C 334.911,151.69 351.953,150.794 363.348,146.746 C 362.299,160.39 341.877,177.457 322.017,191.018 C 288.085,214.186 243.65,244.526 243.65,292.549 C 243.65,299.538 244.593,306.904 246.645,314.674 C 251.661,311.18 263.939,307.172 267.69,307.174 C 263.634,315.069 260.673,329.708 260.673,335.397 C 260.673,345.293 265.58,352.322 271.09,358.166 C 272.847,354.567 280.433,341.209 285.832,337.46 C 283.133,367.446 294.562,384.025 302.261,390.554 C 302.541,388.144 302.897,385.654 303.255,383.193 C 303.748,379.785 306.823,364.599 307.723,361.301 C 340.709,423.522 391.259,443.854 440.362,464.522 C 487.731,484.461 536.6,505.05 567.974,557.836 C 570.33,551.05 573.205,544.157 574.786,540.488 C 535.661,478.178 493.796,458.117 448.328,437.664 z "

   style="fill:white"

   id="path23" />

<path

   d="M 369.033,130.248 C 368.672,120.636 364.041,112.633 356.538,110.253 C 355.128,109.805 353.688,109.58 352.241,109.559 C 345.967,109.467 339.553,113.217 334.82,119.447 C 339.039,116.52 343.798,114.888 348.575,114.885 C 346.286,115.555 344.469,117.5 344.098,120.017 C 343.641,123.451 346.008,126.63 349.446,127.124 C 352.899,127.608 356.054,125.221 356.563,121.799 C 356.931,119.165 355.622,116.705 353.45,115.465 C 353.897,115.574 354.345,115.697 354.791,115.839 C 361.534,117.947 366.503,123.344 369.033,130.248 z "

   style="fill:#00210d"

   id="path25" />

<path

   d="M 146.388,631.275 L 152.996,631.275 L 157.522,621.41 L 174.919,621.41 L 179.18,631.275 L 185.896,631.275 L 166.496,588.053 L 146.388,631.275 z M 160.076,615.665 L 166.389,601.841 L 172.417,615.665 L 160.076,615.665 z "

   style="fill:white"

   id="path27" />

<path

   d="M 216.203,591.826 C 213.835,591.02 210.602,590.617 206.512,590.617 L 197.982,590.617 L 197.982,631.275 L 206.407,631.275 C 210.532,631.275 213.722,630.9 215.966,630.145 C 218.37,629.386 220.669,628.05 222.866,626.117 C 227.229,622.262 229.419,617.205 229.419,610.956 C 229.419,604.729 227.32,599.689 223.128,595.859 C 221.054,593.959 218.744,592.621 216.203,591.826 z M 218.689,621.736 C 217.211,623.077 215.555,624.051 213.723,624.668 C 211.894,625.246 209.592,625.538 206.828,625.538 L 204.057,625.538 L 204.057,596.364 L 206.828,596.364 C 212.079,596.364 216.048,597.6 218.744,600.082 C 221.733,602.863 223.233,606.493 223.233,610.957 C 223.233,615.385 221.715,618.979 218.689,621.736 z "

   style="fill:white"

   id="path29" />

<path

   d="M 263.48,589.835 C 257.62,589.835 252.6,591.89 248.428,595.999 C 244.237,600.109 242.136,605.035 242.136,610.757 C 242.136,617.271 244.437,622.535 249.032,626.555 C 253.208,630.183 257.917,632.002 263.166,632.002 C 269.095,632.002 274.154,629.955 278.348,625.865 C 282.525,621.792 284.609,616.841 284.609,610.994 C 284.609,605.179 282.533,600.2 278.377,596.055 C 274.237,591.908 269.268,589.835 263.48,589.835 z M 274.031,621.836 C 271.1,624.785 267.505,626.26 263.244,626.26 C 259.316,626.26 255.848,624.811 252.85,621.913 C 249.832,619.016 248.324,615.321 248.324,610.819 C 248.324,606.535 249.779,602.931 252.692,600.009 C 255.603,597.054 259.173,595.577 263.403,595.577 C 267.648,595.577 271.204,597.054 274.084,600.009 C 276.976,602.95 278.425,606.595 278.425,610.931 C 278.424,615.213 276.96,618.849 274.031,621.836 z "

   style="fill:white"

   id="path31" />

<path

   d="M 341.211,591.826 C 338.838,591.02 335.607,590.617 331.521,590.617 L 322.988,590.617 L 322.988,631.275 L 331.413,631.275 C 335.537,631.275 338.726,630.9 340.97,630.145 C 343.374,629.386 345.676,628.05 347.869,626.117 C 352.243,622.262 354.426,617.205 354.426,610.956 C 354.426,604.729 352.329,599.689 348.134,595.859 C 346.063,593.959 343.754,592.621 341.211,591.826 z M 343.692,621.736 C 342.221,623.077 340.558,624.051 338.732,624.668 C 336.898,625.246 334.601,625.538 331.837,625.538 L 329.066,625.538 L 329.066,596.364 L 331.837,596.364 C 337.085,596.364 341.053,597.6 343.75,600.082 C 346.742,602.863 348.239,606.493 348.239,610.957 C 348.24,615.385 346.725,618.979 343.692,621.736 z "

   style="fill:white"

   id="path33" />

<polygon

   points="369.156,631.275 391.522,631.275 391.522,625.538 375.23,625.538 375.23,611.932 391.046,611.932 391.046,606.188 375.23,606.188 375.23,596.364 391.522,596.364 391.522,590.617 369.156,590.617 369.156,631.275 "

   style="fill:white"

   id="polygon35" />

<polygon

   points="436.306,618.88 406.652,587.827 406.652,631.275 412.73,631.275 412.73,602.814 442.384,633.731 442.384,590.617 436.306,590.617 436.306,618.88 "

   style="fill:white"

   id="polygon37" />

<polygon

   points="506.583,606.529 488.91,606.529 488.91,590.617 482.836,590.617 482.836,631.275 488.91,631.275 488.91,612.268 506.583,612.268 506.583,631.275 512.657,631.275 512.657,590.617 506.583,590.617 506.583,606.529 "

   style="fill:white"

   id="polygon39" />

<path

   d="M 524.758,631.275 L 531.369,631.275 L 535.889,621.41 L 553.289,621.41 L 557.552,631.275 L 564.267,631.275 L 544.867,588.053 L 524.758,631.275 z M 538.448,615.665 L 544.761,601.841 L 550.789,615.665 L 538.448,615.665 z "

   style="fill:white"

   id="path41" />

<path

   d="M 571.715,631.275 L 578.32,631.275 L 582.846,621.41 L 600.239,621.41 L 604.504,631.275 L 611.218,631.275 L 591.818,588.053 L 571.715,631.275 z M 585.397,615.665 L 591.712,601.841 L 597.738,615.665 L 585.397,615.665 z "

   style="fill:white"

   id="path43" />

<path

   d="M 642.352,610.149 L 642.352,615.889 L 652.484,615.889 C 652.201,618.749 650.866,621.209 648.461,623.261 C 646.057,625.297 643.339,626.313 640.327,626.313 C 636.78,626.313 633.49,624.952 630.459,622.225 C 627.205,619.291 625.591,615.558 625.591,611.018 C 625.591,606.623 627.045,602.965 629.957,600.041 C 632.865,597.068 636.471,595.578 640.776,595.578 C 645.563,595.578 649.622,597.804 652.955,602.249 L 657.326,598.058 C 654.784,595.153 652.194,593.057 649.565,591.766 C 646.809,590.483 643.843,589.835 640.665,589.835 C 634.756,589.835 629.735,591.898 625.613,596.025 C 621.505,600.14 619.455,605.15 619.455,611.048 C 619.455,616.822 621.473,621.774 625.507,625.899 C 629.56,630.003 634.431,632.057 640.114,632.057 C 645.941,632.057 650.735,629.934 654.509,625.69 C 656.176,623.796 657.365,621.767 658.064,619.59 C 658.78,617.241 659.144,614.537 659.144,611.488 L 659.144,610.148 L 642.352,610.148 L 642.352,610.149 z "

   style="fill:white"

   id="path45" />

<polygon

   points="356.898,856.893 362.104,856.893 362.104,882.742 366.625,882.742 366.625,852.615 359.394,852.615 356.898,856.893 "

   style="fill:white"

   id="polygon47" />

<path

   d="M 384.92,852.13 C 382.157,852.13 379.785,853.119 377.801,855.088 C 375.828,857.043 374.846,859.405 374.846,862.165 C 374.846,864.756 375.73,866.975 377.509,868.815 C 379.292,870.668 381.405,871.593 383.842,871.593 C 384.015,871.593 384.234,871.584 384.509,871.559 C 384.783,871.531 385.117,871.492 385.506,871.438 L 378.287,881.282 L 381.634,883.765 L 392.18,869.499 C 394.162,866.782 395.153,864.256 395.153,861.915 C 395.153,859.281 394.135,856.991 392.101,855.054 C 390.064,853.109 387.674,852.13 384.92,852.13 z M 389.018,865.96 C 387.911,867.063 386.571,867.617 384.997,867.617 C 383.424,867.617 382.08,867.061 380.962,865.94 C 379.859,864.834 379.305,863.47 379.305,861.843 C 379.305,860.324 379.862,859.004 380.98,857.885 C 382.089,856.782 383.421,856.228 384.981,856.228 C 386.564,856.228 387.91,856.782 389.018,857.885 C 390.132,859.003 390.693,860.346 390.693,861.922 C 390.693,863.497 390.132,864.84 389.018,865.96 z "

   style="fill:white"

   id="path49" />

<path

   d="M 409.654,852.13 C 406.801,852.13 404.376,853.428 402.374,856.011 C 400.138,858.87 399.018,862.698 399.018,867.491 C 399.018,872.534 400.138,876.485 402.374,879.344 C 404.405,881.93 406.834,883.224 409.672,883.224 C 412.508,883.224 414.928,881.931 416.931,879.344 C 419.17,876.485 420.29,872.601 420.29,867.686 C 420.29,862.763 419.17,858.87 416.931,856.011 C 414.929,853.428 412.504,852.13 409.654,852.13 z M 414.074,875.812 C 412.904,877.981 411.428,879.067 409.64,879.067 C 407.848,879.067 406.372,877.981 405.213,875.812 C 404.056,873.605 403.475,870.829 403.475,867.488 C 403.475,864.28 404.06,861.607 405.231,859.462 C 406.401,857.304 407.873,856.229 409.64,856.229 C 411.427,856.229 412.903,857.304 414.074,859.462 C 415.246,861.632 415.827,864.362 415.827,867.648 C 415.827,870.936 415.246,873.658 414.074,875.812 z "

   style="fill:white"

   id="path51" />

<path

   d="M 440.59,864.74 C 438.71,862.763 436.306,861.773 433.384,861.773 C 433.209,861.773 433.028,861.781 432.824,861.791 C 432.624,861.806 432.412,861.822 432.191,861.851 L 433.674,856.892 L 442.987,856.892 L 442.987,852.614 L 430.511,852.614 L 425.775,868.423 L 427.274,868.423 C 428.757,866.642 430.519,865.747 432.562,865.747 C 434.397,865.747 435.921,866.38 437.145,867.642 C 438.368,868.868 438.978,870.441 438.978,872.369 C 438.978,874.246 438.36,875.837 437.127,877.153 C 435.889,878.43 434.361,879.068 432.541,879.068 C 431.149,879.068 429.974,878.743 429.01,878.089 C 428.051,877.427 427.094,876.292 426.142,874.673 L 422.708,877.583 C 425.009,881.345 428.156,883.225 432.151,883.225 C 435.389,883.225 438.08,882.197 440.223,880.142 C 442.368,878.082 443.436,875.471 443.436,872.297 C 443.438,869.223 442.491,866.707 440.59,864.74 z "

   style="fill:white"

   id="path53" />

<path

   d="M 486.917,747.449 C 481.303,752.803 475.585,755.512 469.808,755.223 C 461.513,754.75 455.184,749.13 451.136,744.092 C 444.984,754.865 437.53,761.249 429.004,762.923 C 416.138,765.399 404.864,757.846 400.208,754.093 C 396.358,755.563 385.911,760.435 382.654,769.925 C 380.534,776.132 381.9,783.517 386.709,791.887 C 386.709,791.887 388.824,795.167 389.177,795.731 C 398.191,797.214 463.111,806.532 483.441,771.953 C 483.441,771.953 484.505,770.133 484.658,769.892 C 486.399,762.67 487.111,755.111 486.917,747.449 z "

   style="fill:#914a00"

   id="path55" />

<path

   d="M 379.99,795.829 C 374.025,785.435 372.456,775.896 375.366,767.381 C 380.081,753.686 394.456,747.866 398.482,746.458 C 399.036,741.977 399.23,734.112 395.505,727.651 C 394.888,726.586 394.18,725.563 393.364,724.668 C 388.396,718.958 379.755,716.499 367.757,717.388 C 361.882,724.571 321.439,776.021 341.21,810.923 C 341.21,810.923 341.901,812.179 342.035,812.424 C 347.33,817.382 353.285,821.635 359.7,825.145 C 357.91,817.695 358.471,811.418 361.634,806.579 C 366.066,799.779 373.887,797.106 380.197,796.067 C 380.081,795.93 380.021,795.829 379.99,795.829 z "

   style="fill:#914a00"

   id="path57" />

<path

   d="M 386.52,803.094 C 384.89,803.124 372.8,803.573 368.12,810.807 C 365.354,815.061 365.677,821.34 369.048,829.517 C 393.838,839.475 421.166,837.568 444.112,824.36 C 458.023,816.325 469.191,804.631 476.746,790.443 C 445.504,813.806 389.684,803.724 386.52,803.094 z "

   style="fill:#914a00"

   id="path59" />

<path

   d="M 362.694,711.429 C 363.117,710.676 369.329,699.601 365.254,691.592 L 364.972,691.11 C 363.537,688.615 361.07,686.663 357.623,685.24 L 346.698,695.692 C 346.698,695.692 347.307,689.55 349.027,683.048 C 348.404,682.96 347.768,682.878 347.114,682.807 C 314.348,709.183 305.427,756.39 326.472,792.814 C 327.075,793.872 327.785,795.004 328.599,796.204 C 323.827,757.612 360.489,714.004 362.694,711.429 z "

   style="fill:#914a00"

   id="path61" />

<path

   d="M 371.665,687.261 C 371.665,687.261 372.126,688.104 372.126,688.134 C 375.92,695.546 374.169,703.853 371.798,709.954 C 384.319,709.873 393.539,713.112 399.192,719.605 C 400.336,720.904 401.349,722.31 402.206,723.788 C 407.374,732.787 406.834,743.071 405.979,748.777 C 409.723,751.571 418.465,757.105 427.549,755.348 C 434.95,753.9 441.378,747.636 446.666,736.765 C 445.314,733.245 441.086,722.556 434.132,710.543 C 427.115,698.394 417.292,684.819 404.952,676.118 L 390.773,688.27 L 375.383,707.296 C 375.383,707.296 373.517,688.625 378.181,682.704 C 380.252,680.059 386.319,674.769 392.563,669.546 C 391.846,669.287 391.122,669.047 390.39,668.826 C 379.329,672.44 368.499,676.027 366.335,676.904 L 363.41,679.703 C 367.081,681.637 369.864,684.143 371.665,687.261 z "

   style="fill:#914a00"

   id="path63" />

<path

   d="M 440.902,706.69 C 449.254,721.177 453.773,733.746 454.361,735.391 C 454.823,736.144 461.366,747.037 470.218,747.523 C 475.353,747.767 480.698,744.258 486.132,737.084 C 484.575,726.27 481.05,716.017 475.66,706.683 C 462.884,684.584 441.734,669.878 417.583,665.292 L 410.906,671.014 C 424,680.745 434.094,694.921 440.902,706.69 z "

   style="fill:#914a00"

   id="path65" />

</svg>