<?xml version="1.0" encoding="UTF-8" standalone="no"?>

<!-- Created with Inkscape (http://www.inkscape.org/) -->



<svg

   xmlns:dc="http://purl.org/dc/elements/1.1/"

   xmlns:cc="http://creativecommons.org/ns#"

   xmlns:rdf="http://www.w3.org/1999/02/22-rdf-syntax-ns#"

   xmlns:svg="http://www.w3.org/2000/svg"

   xmlns="http://www.w3.org/2000/svg"

   xmlns:inkscape="http://www.inkscape.org/namespaces/inkscape"

   version="1.1"

   width="732.67499"

   height="732.67499"

   viewBox="0 0 732.67499 732.67499"

   id="svg2"

   xml:space="preserve"><metadata

     id="metadata8"><rdf:RDF><cc:Work

         rdf:about=""><dc:format>image/svg+xml</dc:format><dc:type

           rdf:resource="http://purl.org/dc/dcmitype/StillImage" /></cc:Work></rdf:RDF></metadata><defs

     id="defs6" /><g

     transform="matrix(1.25,0,0,-1.25,0,732.675)"

     id="g10"><g

       transform="scale(0.1,0.1)"

       id="g12"><path

         d="M 5828.43,2930.71 C 5828.43,1330.35 4531.05,32.9922 2930.7,32.9922 1330.34,32.9922 32.9844,1330.34 32.9844,2930.71 c 0,1600.36 1297.3556,2897.72 2897.7156,2897.72 1600.35,0 2897.73,-1297.36 2897.73,-2897.72"

         inkscape:connector-curvature="0"

         id="path14"

         style="fill:#ffffff;fill-opacity:1;fill-rule:nonzero;stroke:none" /><path

         d="M 5828.43,2930.71 C 5828.43,1330.35 4531.05,32.9922 2930.7,32.9922 1330.34,32.9922 32.9844,1330.34 32.9844,2930.71 c 0,1600.36 1297.3556,2897.72 2897.7156,2897.72 1600.35,0 2897.73,-1297.36 2897.73,-2897.72 z"

         inkscape:connector-curvature="0"

         id="path16"

         style="fill:none;stroke:#231f20;stroke-width:65.96649933;stroke-linecap:butt;stroke-linejoin:miter;stroke-miterlimit:4;stroke-opacity:1;stroke-dasharray:none" /><path

         d="m 4441.99,2930.71 -3022.58,0 c 0,-834.73 676.64,-1511.35 1511.29,-1511.35 834.65,0 1511.29,676.62 1511.29,1511.35"

         inkscape:connector-curvature="0"

         id="path18"

         style="fill:#ee2722;fill-opacity:1;fill-rule:nonzero;stroke:none" /><path

         d="m 4441.99,2931.04 -3022.58,0 c 0,834.73 676.64,1511.33 1511.29,1511.33 834.65,0 1511.29,-676.6 1511.29,-1511.33"

         inkscape:connector-curvature="0"

         id="path20"

         style="fill:#231f20;fill-opacity:1;fill-rule:nonzero;stroke:none" /><path

         d="m 918.402,3311.65 12.352,97.5 c 55.344,-10.65 98.286,-10.77 128.916,-0.34 30.62,10.4 50.53,30.81 59.77,61.26 9.68,31.92 5.86,59.46 -11.53,82.57 -17.39,23.13 -41.04,39.24 -70.95,48.32 -19.22,5.84 -36.56,7.48 -52.077,4.92 -15.488,-2.58 -30.789,-10.86 -45.945,-24.84 -10.083,-9.47 -29.833,-32.16 -59.235,-68.03 -37.746,-46.29 -75.719,-75.17 -113.922,-86.57 -53.851,-16.36 -112.949,-14.79 -177.308,4.75 -41.395,12.56 -77.993,31.35 -109.785,56.34 -31.801,25 -53.129,53.56 -63.969,85.74 -10.817,32.15 -10.535,67.07 0.922,104.81 18.519,60.99 55.078,100.15 109.652,117.51 54.582,17.37 119.781,15.36 195.609,-6.05 L 696.898,3689.1 c -43.277,8.71 -76.218,8.98 -98.836,0.76 -22.632,-8.21 -38.124,-26.1 -46.48,-53.66 -8.734,-28.71 -5.637,-53.95 9.227,-75.74 9.386,-14.49 24.66,-24.96 45.796,-31.37 19.336,-5.87 37.364,-5.93 54.106,-0.14 21.121,6.85 48.375,31.41 81.648,73.63 33.301,42.19 63.52,71.63 90.614,88.35 27.078,16.72 60.097,26.21 98.953,28.48 38.898,2.27 84.064,-4.36 135.474,-19.96 46.64,-14.17 87.95,-35.2 123.91,-63.08 36.01,-27.89 59.61,-59.06 70.76,-93.53 11.11,-34.48 10.32,-72.77 -2.47,-114.91 -18.75,-61.76 -56.97,-101.94 -114.71,-120.52 -57.75,-18.63 -133.22,-17.19 -226.488,4.24"

         inkscape:connector-curvature="0"

         id="path22"

         style="fill:#231f20;fill-opacity:1;fill-rule:nonzero;stroke:none" /><path

         d="m 918.402,3311.65 12.352,97.5 c 55.344,-10.65 98.286,-10.77 128.916,-0.34 30.62,10.4 50.53,30.81 59.77,61.26 9.68,31.92 5.86,59.46 -11.53,82.57 -17.39,23.13 -41.04,39.24 -70.95,48.32 -19.22,5.84 -36.56,7.48 -52.077,4.92 -15.488,-2.58 -30.789,-10.86 -45.945,-24.84 -10.083,-9.47 -29.833,-32.16 -59.235,-68.03 -37.746,-46.29 -75.719,-75.17 -113.922,-86.57 -53.851,-16.36 -112.949,-14.79 -177.308,4.75 -41.395,12.56 -77.993,31.35 -109.785,56.34 -31.801,25 -53.129,53.56 -63.969,85.74 -10.817,32.15 -10.535,67.07 0.922,104.81 18.519,60.99 55.078,100.15 109.652,117.51 54.582,17.37 119.781,15.36 195.609,-6.05 L 696.898,3689.1 c -43.277,8.71 -76.218,8.98 -98.836,0.76 -22.632,-8.21 -38.124,-26.1 -46.48,-53.66 -8.734,-28.71 -5.637,-53.95 9.227,-75.74 9.386,-14.49 24.66,-24.96 45.796,-31.37 19.336,-5.87 37.364,-5.93 54.106,-0.14 21.121,6.85 48.375,31.41 81.648,73.63 33.301,42.19 63.52,71.63 90.614,88.35 27.078,16.72 60.097,26.21 98.953,28.48 38.898,2.27 84.064,-4.36 135.474,-19.96 46.64,-14.17 87.95,-35.2 123.91,-63.08 36.01,-27.89 59.61,-59.06 70.76,-93.53 11.11,-34.48 10.32,-72.77 -2.47,-114.91 -18.75,-61.76 -56.97,-101.94 -114.71,-120.52 -57.75,-18.63 -133.22,-17.19 -226.488,4.24 z"

         inkscape:connector-curvature="0"

         id="path24"

         style="fill:none;stroke:#231f20;stroke-width:49.4742012;stroke-linecap:butt;stroke-linejoin:miter;stroke-miterlimit:4;stroke-opacity:1;stroke-dasharray:none" /><path

         d="m 1434.7,3856.02 -263.74,184.01 38.54,55.23 c 26.8,38.41 43.85,69.95 51.15,94.6 5.02,18.68 4.22,41.06 -2.33,67.12 -6.57,26.04 -21.2,53.96 -43.84,83.7 -22.67,29.72 -55.39,59.53 -98.25,89.43 -55.52,38.75 -106.44,62.21 -152.804,70.49 -46.371,8.24 -83.215,3.96 -110.531,-12.86 -17.852,-10.71 -44.735,-41.82 -80.625,-93.27 l -94.786,-135.83 698.236,-487.15 58.98,84.53 z m -551.138,445.8 c 21.407,30.66 37.254,50.01 47.551,58 13.699,10.87 31.965,15.09 54.813,12.72 22.834,-2.42 46.934,-12.45 72.304,-30.14 20.59,-14.38 36.38,-30.26 47.35,-47.66 10.95,-17.38 16.17,-34.22 15.66,-50.48 -0.52,-16.28 -12.46,-41.18 -35.87,-74.7 l -32.75,-46.95 -197.804,137.99 28.746,41.22"

         inkscape:connector-curvature="0"

         id="path26"

         style="fill:#231f20;fill-opacity:1;fill-rule:nonzero;stroke:none" /><path

         d="m 1434.7,3856.02 -263.74,184.01 38.54,55.23 c 26.8,38.41 43.85,69.95 51.15,94.6 5.02,18.68 4.22,41.06 -2.33,67.12 -6.57,26.04 -21.2,53.96 -43.84,83.7 -22.67,29.72 -55.39,59.53 -98.25,89.43 -55.52,38.75 -106.44,62.21 -152.804,70.49 -46.371,8.24 -83.215,3.96 -110.531,-12.86 -17.852,-10.71 -44.735,-41.82 -80.625,-93.27 l -94.786,-135.83 698.236,-487.15 58.98,84.53 z m -551.138,445.8 c 21.407,30.66 37.254,50.01 47.551,58 13.699,10.87 31.965,15.09 54.813,12.72 22.834,-2.42 46.934,-12.45 72.304,-30.14 20.59,-14.38 36.38,-30.26 47.35,-47.66 10.95,-17.38 16.17,-34.22 15.66,-50.48 -0.52,-16.28 -12.46,-41.18 -35.87,-74.7 l -32.75,-46.95 -197.804,137.99 28.746,41.22 z"

         inkscape:connector-curvature="0"

         id="path28"

         style="fill:none;stroke:#231f20;stroke-width:49.4742012;stroke-linecap:butt;stroke-linejoin:miter;stroke-miterlimit:4;stroke-opacity:1;stroke-dasharray:none" /><path

         d="m 1683.8,4312.26 c 81.39,-36.34 152.73,-32.15 214.1,12.48 60.11,43.71 85.42,110.06 75.88,199.12 -9.56,89.02 -54.72,189.14 -135.52,300.26 -81.5,112.05 -163.28,186.33 -245.32,222.89 -82.05,36.56 -153.43,32.74 -214.16,-11.42 -33.34,-24.23 -56.15,-54.71 -68.47,-91.43 -9.53,-27.54 -12.24,-61.09 -8.19,-100.73 4.06,-39.65 14.17,-80.38 30.34,-122.22 22.17,-56.66 58.74,-120.02 109.72,-190.15 79.69,-109.56 160.22,-182.51 241.62,-218.8 z m -257.99,486.29 c -7.63,54.62 5.77,94.47 40.23,119.53 34.46,25.07 76.18,25.65 125.15,1.8 48.95,-23.84 102.16,-75.28 159.64,-154.31 58.18,-79.97 91.15,-147.72 98.92,-203.2 7.77,-55.48 -4.98,-95.3 -38.16,-119.44 -33.21,-24.14 -75.27,-23.96 -126.18,0.63 -50.93,24.58 -104.8,75.93 -161.61,154.03 -57.69,79.34 -90.37,146.31 -97.99,200.96"

         inkscape:connector-curvature="0"

         id="path30"

         style="fill:#231f20;fill-opacity:1;fill-rule:nonzero;stroke:none" /><path

         d="m 1683.8,4312.26 c 81.39,-36.34 152.73,-32.15 214.1,12.48 60.11,43.71 85.42,110.06 75.88,199.12 -9.56,89.02 -54.72,189.14 -135.52,300.26 -81.5,112.05 -163.28,186.33 -245.32,222.89 -82.05,36.56 -153.43,32.74 -214.16,-11.42 -33.34,-24.23 -56.15,-54.71 -68.47,-91.43 -9.53,-27.54 -12.24,-61.09 -8.19,-100.73 4.06,-39.65 14.17,-80.38 30.34,-122.22 22.17,-56.66 58.74,-120.02 109.72,-190.15 79.69,-109.56 160.22,-182.51 241.62,-218.8 z m -257.99,486.29 c -7.63,54.62 5.77,94.47 40.23,119.53 34.46,25.07 76.18,25.65 125.15,1.8 48.95,-23.84 102.16,-75.28 159.64,-154.31 58.18,-79.97 91.15,-147.72 98.92,-203.2 7.77,-55.48 -4.98,-95.3 -38.16,-119.44 -33.21,-24.14 -75.27,-23.96 -126.18,0.63 -50.93,24.58 -104.8,75.93 -161.61,154.03 -57.69,79.34 -90.37,146.31 -97.99,200.96 z"

         inkscape:connector-curvature="0"

         id="path32"

         style="fill:none;stroke:#231f20;stroke-width:49.4742012;stroke-linecap:butt;stroke-linejoin:miter;stroke-miterlimit:4;stroke-opacity:1;stroke-dasharray:none" /><path

         d="m 2321.24,4570.05 -99.06,340.46 20.1,5.85 c 22.71,6.59 40.22,8.37 52.62,5.38 12.38,-3.04 25.63,-11.44 39.72,-25.19 14.1,-13.75 43.02,-48.56 86.75,-104.41 l 122.37,-157.35 117.95,34.32 -105.71,141.84 c -42.02,56.58 -73.55,95.27 -94.58,116.11 -21.03,20.87 -45.04,38.59 -72.05,53.28 39.28,22.74 63.83,57.26 73.69,103.53 9.9,46.27 5.88,100.17 -11.99,161.63 -14.1,48.39 -33.74,89.32 -58.95,122.79 -25.21,33.47 -51.75,54.09 -79.74,61.91 -27.97,7.83 -68.06,4.14 -120.27,-11.06 l -207.67,-60.42 237.85,-817.46 98.97,28.79 z m -197.53,678.92 77.4,22.54 c 40.1,11.65 64.29,17.69 72.62,18.09 17.27,0.16 32.84,-6.9 46.69,-21.27 13.84,-14.36 24.78,-35.32 32.79,-62.88 7.16,-24.59 9.76,-46.04 7.86,-64.37 -1.92,-18.35 -7.86,-32.61 -17.8,-42.74 -9.92,-10.18 -38.63,-22.16 -86.15,-35.97 l -72.94,-21.23 -60.47,207.83"

         inkscape:connector-curvature="0"

         id="path34"

         style="fill:#231f20;fill-opacity:1;fill-rule:nonzero;stroke:none" /><path

         d="m 2321.24,4570.05 -99.06,340.46 20.1,5.85 c 22.71,6.59 40.22,8.37 52.62,5.38 12.38,-3.04 25.63,-11.44 39.72,-25.19 14.1,-13.75 43.02,-48.56 86.75,-104.41 l 122.37,-157.35 117.95,34.32 -105.71,141.84 c -42.02,56.58 -73.55,95.27 -94.58,116.11 -21.03,20.87 -45.04,38.59 -72.05,53.28 39.28,22.74 63.83,57.26 73.69,103.53 9.9,46.27 5.88,100.17 -11.99,161.63 -14.1,48.39 -33.74,89.32 -58.95,122.79 -25.21,33.47 -51.75,54.09 -79.74,61.91 -27.97,7.83 -68.06,4.14 -120.27,-11.06 l -207.67,-60.42 237.85,-817.46 98.97,28.79 z m -197.53,678.92 77.4,22.54 c 40.1,11.65 64.29,17.69 72.62,18.09 17.27,0.16 32.84,-6.9 46.69,-21.27 13.84,-14.36 24.78,-35.32 32.79,-62.88 7.16,-24.59 9.76,-46.04 7.86,-64.37 -1.92,-18.35 -7.86,-32.61 -17.8,-42.74 -9.92,-10.18 -38.63,-22.16 -86.15,-35.97 l -72.94,-21.23 -60.47,207.83 z"

         inkscape:connector-curvature="0"

         id="path36"

         style="fill:none;stroke:#231f20;stroke-width:49.4742012;stroke-linecap:butt;stroke-linejoin:miter;stroke-miterlimit:4;stroke-opacity:1;stroke-dasharray:none" /><path

         d="m 2906.4,4669.01 19,706.82 -150.43,4.05 3.87,144.24 403.9,-10.87 -3.85,-144.23 -150.46,4.05 -19,-706.83 -103.03,2.77"

         inkscape:connector-curvature="0"

         id="path38"

         style="fill:#231f20;fill-opacity:1;fill-rule:nonzero;stroke:none" /><path

         d="m 2906.4,4669.01 19,706.82 -150.43,4.05 3.87,144.24 403.9,-10.87 -3.85,-144.23 -150.46,4.05 -19,-706.83 -103.03,2.77 z"

         inkscape:connector-curvature="0"

         id="path40"

         style="fill:none;stroke:#231f20;stroke-width:49.4742012;stroke-linecap:butt;stroke-linejoin:miter;stroke-miterlimit:4;stroke-opacity:1;stroke-dasharray:none" /><path

         d="m 3713.74,4820.91 73.84,-81.16 c -46.13,-82.72 -93.66,-139.45 -142.69,-170.08 -48.99,-30.64 -99.53,-36.65 -151.58,-18.02 -64.16,22.94 -103.87,78.06 -119.17,165.36 -15.3,87.28 -0.45,193.83 44.54,319.63 47.6,133.09 105.17,229.07 172.72,287.97 67.51,58.93 135.02,76.31 202.46,52.18 59.11,-21.12 96.56,-66.99 112.44,-137.57 9.71,-41.83 8.64,-96.6 -3.21,-164.2 l -108.96,-4.82 c 8.88,43.47 8.53,80.45 -1.1,110.92 -9.64,30.47 -27.45,50.34 -53.54,59.69 -36.04,12.89 -72.76,1.99 -110.23,-32.63 -37.45,-34.63 -73.21,-99.6 -107.28,-194.92 -36.2,-101.19 -50.73,-177.23 -43.59,-228.23 7.12,-50.96 28.68,-82.87 64.66,-95.74 26.21,-9.38 53.78,-3.77 82.74,16.87 28.93,20.62 58.23,58.87 87.95,114.75"

         inkscape:connector-curvature="0"

         id="path42"

         style="fill:#231f20;fill-opacity:1;fill-rule:nonzero;stroke:none" /><path

         d="m 3713.74,4820.91 73.84,-81.16 c -46.13,-82.72 -93.66,-139.45 -142.69,-170.08 -48.99,-30.64 -99.53,-36.65 -151.58,-18.02 -64.16,22.94 -103.87,78.06 -119.17,165.36 -15.3,87.28 -0.45,193.83 44.54,319.63 47.6,133.09 105.17,229.07 172.72,287.97 67.51,58.93 135.02,76.31 202.46,52.18 59.11,-21.12 96.56,-66.99 112.44,-137.57 9.71,-41.83 8.64,-96.6 -3.21,-164.2 l -108.96,-4.82 c 8.88,43.47 8.53,80.45 -1.1,110.92 -9.64,30.47 -27.45,50.34 -53.54,59.69 -36.04,12.89 -72.76,1.99 -110.23,-32.63 -37.45,-34.63 -73.21,-99.6 -107.28,-194.92 -36.2,-101.19 -50.73,-177.23 -43.59,-228.23 7.12,-50.96 28.68,-82.87 64.66,-95.74 26.21,-9.38 53.78,-3.77 82.74,16.87 28.93,20.62 58.23,58.87 87.95,114.75 z"

         inkscape:connector-curvature="0"

         id="path44"

         style="fill:none;stroke:#231f20;stroke-width:49.4742012;stroke-linecap:butt;stroke-linejoin:miter;stroke-miterlimit:4;stroke-opacity:1;stroke-dasharray:none" /><path

         d="m 3836.03,4408.61 514.71,667.79 81.62,-62.92 -426.62,-553.5 205.72,-158.56 -88.06,-114.3 -287.37,221.49"

         inkscape:connector-curvature="0"

         id="path46"

         style="fill:#231f20;fill-opacity:1;fill-rule:nonzero;stroke:none" /><path

         d="m 3836.03,4408.61 514.71,667.79 81.62,-62.92 -426.62,-553.5 205.72,-158.56 -88.06,-114.3 -287.37,221.49 z"

         inkscape:connector-curvature="0"

         id="path48"

         style="fill:none;stroke:#231f20;stroke-width:49.4742012;stroke-linecap:butt;stroke-linejoin:miter;stroke-miterlimit:4;stroke-opacity:1;stroke-dasharray:none" /><path

         d="m 4927.85,4562.6 58.27,-85.03 -381.7,-261.58 c -60.58,-41.51 -99.1,-69.51 -115.49,-84.01 -26.52,-23.22 -43.84,-47.61 -52.03,-73.11 -8.21,-25.49 -4.31,-49.88 11.64,-73.16 16.35,-23.88 36.94,-36.25 61.78,-37.03 24.79,-0.82 50.02,5.85 75.68,19.96 25.61,14.12 66.36,40.28 122.11,78.5 l 389.9,267.19 58.27,-85.01 -369.74,-253.38 c -84.52,-57.92 -145.78,-96.53 -183.83,-115.83 -38.02,-19.33 -73.23,-31.1 -105.62,-35.37 -32.36,-4.24 -62.7,-0.94 -91.07,9.9 -28.35,10.86 -53.82,32.77 -76.41,65.7 -27.41,39.98 -40.36,75.56 -38.97,106.78 1.39,31.24 10.38,61.37 26.92,90.42 16.56,29.07 37.15,54.81 61.76,77.26 36.65,33.03 94.3,76.5 173.06,130.47 l 375.47,257.33"

         inkscape:connector-curvature="0"

         id="path50"

         style="fill:#231f20;fill-opacity:1;fill-rule:nonzero;stroke:none" /><path

         d="m 4927.85,4562.6 58.27,-85.03 -381.7,-261.58 c -60.58,-41.51 -99.1,-69.51 -115.49,-84.01 -26.52,-23.22 -43.84,-47.61 -52.03,-73.11 -8.21,-25.49 -4.31,-49.88 11.64,-73.16 16.35,-23.88 36.94,-36.25 61.78,-37.03 24.79,-0.82 50.02,5.85 75.68,19.96 25.61,14.12 66.36,40.28 122.11,78.5 l 389.9,267.19 58.27,-85.01 -369.74,-253.38 c -84.52,-57.92 -145.78,-96.53 -183.83,-115.83 -38.02,-19.33 -73.23,-31.1 -105.62,-35.37 -32.36,-4.24 -62.7,-0.94 -91.07,9.9 -28.35,10.86 -53.82,32.77 -76.41,65.7 -27.41,39.98 -40.36,75.56 -38.97,106.78 1.39,31.24 10.38,61.37 26.92,90.42 16.56,29.07 37.15,54.81 61.76,77.26 36.65,33.03 94.3,76.5 173.06,130.47 l 375.47,257.33 z"

         inkscape:connector-curvature="0"

         id="path52"

         style="fill:none;stroke:#231f20;stroke-width:49.4742012;stroke-linecap:butt;stroke-linejoin:miter;stroke-miterlimit:4;stroke-opacity:1;stroke-dasharray:none" /><path

         d="m 4932.87,3502.91 c 12.38,-45.61 16.49,-76.18 12.47,-91.72 -4.03,-15.55 -13.47,-29.25 -28.26,-41.11 -14.84,-11.84 -34.32,-21.04 -58.42,-27.58 -28.54,-7.74 -52.56,-9.2 -72.05,-4.49 -19.55,4.75 -33.53,14.02 -41.94,27.79 -5.93,8.84 -13.76,31.22 -23.48,67.08 l -24.93,91.99 214.87,58.25 21.74,-80.21 z m -402.88,83.69 45.44,-167.66 c 17.91,-63.13 30.57,-102.47 37.98,-118.06 12.02,-25.14 30.93,-43.81 56.76,-56 25.83,-12.17 57.71,-18.72 95.66,-19.66 37.91,-0.92 75.47,3.64 112.61,13.71 47.15,12.78 86.03,31.86 116.67,57.24 30.59,25.38 49.12,54.98 55.49,88.84 21.87,-16.66 50.67,-26.81 86.39,-30.4 35.69,-3.61 72.96,-0.2 111.67,10.31 35.75,9.69 66.64,23.46 92.7,41.34 26.05,17.87 45.67,36.67 58.91,56.48 13.17,19.78 19.91,40 20.19,60.66 0.23,20.7 -4.88,50.42 -15.39,89.14 l -53.33,196.79 -821.75,-222.73 z m 724.82,28.7 c 12.57,-46.39 19.3,-74.87 20.17,-85.41 1.06,-17.23 -5.19,-32.16 -18.72,-44.81 -13.53,-12.62 -32.95,-22.38 -58.17,-29.22 -26.45,-7.17 -49.03,-8.06 -67.8,-2.81 -18.78,5.24 -32.15,15.96 -40.1,32.13 -4.38,8.79 -11.83,32.48 -22.3,71.09 l -17.48,64.6 189,51.23 15.4,-56.8"

         inkscape:connector-curvature="0"

         id="path54"

         style="fill:#231f20;fill-opacity:1;fill-rule:nonzero;stroke:none" /><path

         d="m 4932.87,3502.91 c 12.38,-45.61 16.49,-76.18 12.47,-91.72 -4.03,-15.55 -13.47,-29.25 -28.26,-41.11 -14.84,-11.84 -34.32,-21.04 -58.42,-27.58 -28.54,-7.74 -52.56,-9.2 -72.05,-4.49 -19.55,4.75 -33.53,14.02 -41.94,27.79 -5.93,8.84 -13.76,31.22 -23.48,67.08 l -24.93,91.99 214.87,58.25 21.74,-80.21 z m -402.88,83.69 45.44,-167.66 c 17.91,-63.13 30.57,-102.47 37.98,-118.06 12.02,-25.14 30.93,-43.81 56.76,-56 25.83,-12.17 57.71,-18.72 95.66,-19.66 37.91,-0.92 75.47,3.64 112.61,13.71 47.15,12.78 86.03,31.86 116.67,57.24 30.59,25.38 49.12,54.98 55.49,88.84 21.87,-16.66 50.67,-26.81 86.39,-30.4 35.69,-3.61 72.96,-0.2 111.67,10.31 35.75,9.69 66.64,23.46 92.7,41.34 26.05,17.87 45.67,36.67 58.91,56.48 13.17,19.78 19.91,40 20.19,60.66 0.23,20.7 -4.88,50.42 -15.39,89.14 l -53.33,196.79 -821.75,-222.73 z m 724.82,28.7 c 12.57,-46.39 19.3,-74.87 20.17,-85.41 1.06,-17.23 -5.19,-32.16 -18.72,-44.81 -13.53,-12.62 -32.95,-22.38 -58.17,-29.22 -26.45,-7.17 -49.03,-8.06 -67.8,-2.81 -18.78,5.24 -32.15,15.96 -40.1,32.13 -4.38,8.79 -11.83,32.48 -22.3,71.09 l -17.48,64.6 189,51.23 15.4,-56.8 z"

         inkscape:connector-curvature="0"

         id="path56"

         style="fill:none;stroke:#231f20;stroke-width:49.4742012;stroke-linecap:butt;stroke-linejoin:miter;stroke-miterlimit:4;stroke-opacity:1;stroke-dasharray:none" /><path

         d="m 4441.99,2931.04 -3022.58,0 c 0,834.73 676.64,1511.33 1511.29,1511.33 834.65,0 1511.29,-676.6 1511.29,-1511.33"

         inkscape:connector-curvature="0"

         id="path58"

         style="fill:#231f20;fill-opacity:1;fill-rule:nonzero;stroke:none" /><path

         d="m 450.102,2073.08 782.518,335.42 148.62,-346.73 -132.62,-56.86 -108.02,252.02 -172.42,-73.92 100.7,-234.94 -132.614,-56.86 -100.704,234.94 -212.226,-90.96 112.082,-261.48 -132.629,-56.85 -152.687,356.22"

         inkscape:connector-curvature="0"

         id="path60"

         style="fill:#231f20;fill-opacity:1;fill-rule:nonzero;stroke:none" /><path

         d="m 450.102,2073.08 782.518,335.42 148.62,-346.73 -132.62,-56.86 -108.02,252.02 -172.42,-73.92 100.7,-234.94 -132.614,-56.86 -100.704,234.94 -212.226,-90.96 112.082,-261.48 -132.629,-56.85 -152.687,356.22 z"

         inkscape:connector-curvature="0"

         id="path62"

         style="fill:none;stroke:#231f20;stroke-width:49.4742012;stroke-linecap:butt;stroke-linejoin:miter;stroke-miterlimit:4;stroke-opacity:1;stroke-dasharray:none" /><path

         d="m 781.82,1417.38 451.87,153.83 208.24,384.1 77.72,-91.71 -128.82,-238.89 257.14,87.52 76.54,-90.3 -411.19,-141.01 -227.59,-422.07 -79.15,93.37 148.79,274.53 -295.573,-101.38 -77.977,92.01"

         inkscape:connector-curvature="0"

         id="path64"

         style="fill:#231f20;fill-opacity:1;fill-rule:nonzero;stroke:none" /><path

         d="m 781.82,1417.38 451.87,153.83 208.24,384.1 77.72,-91.71 -128.82,-238.89 257.14,87.52 76.54,-90.3 -411.19,-141.01 -227.59,-422.07 -79.15,93.37 148.79,274.53 -295.573,-101.38 -77.977,92.01 z"

         inkscape:connector-curvature="0"

         id="path66"

         style="fill:none;stroke:#231f20;stroke-width:49.4742012;stroke-linecap:butt;stroke-linejoin:miter;stroke-miterlimit:4;stroke-opacity:1;stroke-dasharray:none" /><path

         d="m 1818.56,908.551 55.11,-94.891 c -62.55,-71.148 -120.98,-116.57 -175.34,-136.191 -54.36,-19.61 -105.03,-14.84 -152,14.351 -57.87,35.942 -85.08,98.2 -81.63,186.782 3.45,88.539 40.44,189.548 110.95,303.018 74.57,120.08 151.07,201.77 229.53,245.13 78.42,43.36 148.08,46.09 208.94,8.3 53.29,-33.11 80.25,-85.84 80.89,-158.19 0.67,-42.96 -11.92,-96.24 -37.75,-159.85 l -107.57,18.29 c 17.88,40.62 25.35,76.83 22.34,108.65 -2.99,31.8 -16.2,55.01 -39.74,69.61 -32.52,20.19 -70.69,17.33 -114.61,-8.62 -43.93,-25.98 -92.57,-81.95 -146,-167.93 -56.7,-91.27 -86.95,-162.549 -90.7,-213.908 -3.81,-51.332 10.56,-87.051 43.01,-107.223 23.63,-14.68 51.78,-15.039 84.42,-0.949 32.63,14.07 69.34,45.269 110.15,93.621"

         inkscape:connector-curvature="0"

         id="path68"

         style="fill:#231f20;fill-opacity:1;fill-rule:nonzero;stroke:none" /><path

         d="m 1818.56,908.551 55.11,-94.891 c -62.55,-71.148 -120.98,-116.57 -175.34,-136.191 -54.36,-19.61 -105.03,-14.84 -152,14.351 -57.87,35.942 -85.08,98.2 -81.63,186.782 3.45,88.539 40.44,189.548 110.95,303.018 74.57,120.08 151.07,201.77 229.53,245.13 78.42,43.36 148.08,46.09 208.94,8.3 53.29,-33.11 80.25,-85.84 80.89,-158.19 0.67,-42.96 -11.92,-96.24 -37.75,-159.85 l -107.57,18.29 c 17.88,40.62 25.35,76.83 22.34,108.65 -2.99,31.8 -16.2,55.01 -39.74,69.61 -32.52,20.19 -70.69,17.33 -114.61,-8.62 -43.93,-25.98 -92.57,-81.95 -146,-167.93 -56.7,-91.27 -86.95,-162.549 -90.7,-213.908 -3.81,-51.332 10.56,-87.051 43.01,-107.223 23.63,-14.68 51.78,-15.039 84.42,-0.949 32.63,14.07 69.34,45.269 110.15,93.621 z"

         inkscape:connector-curvature="0"

         id="path70"

         style="fill:none;stroke:#231f20;stroke-width:49.4742012;stroke-linecap:butt;stroke-linejoin:miter;stroke-miterlimit:4;stroke-opacity:1;stroke-dasharray:none" /><path

         d="m 2110.14,438.309 208.11,825.551 365.8,-92.21 -35.26,-139.92 -265.86,67.01 -45.85,-181.908 247.85,-62.492 -35.27,-139.918 -247.87,62.488 -56.43,-223.851 275.84,-69.547 -35.27,-139.922 -375.79,94.719"

         inkscape:connector-curvature="0"

         id="path72"

         style="fill:#231f20;fill-opacity:1;fill-rule:nonzero;stroke:none" /><path

         d="m 2110.14,438.309 208.11,825.551 365.8,-92.21 -35.26,-139.92 -265.86,67.01 -45.85,-181.908 247.85,-62.492 -35.27,-139.918 -247.87,62.488 -56.43,-223.851 275.84,-69.547 -35.27,-139.922 -375.79,94.719 z"

         inkscape:connector-curvature="0"

         id="path74"

         style="fill:none;stroke:#231f20;stroke-width:49.4742012;stroke-linecap:butt;stroke-linejoin:miter;stroke-miterlimit:4;stroke-opacity:1;stroke-dasharray:none" /><path

         d="m 2878.68,308.359 -36.02,842.351 102.97,4.41 29.84,-698.218 259.52,11.11 6.16,-144.16 -362.47,-15.493"

         inkscape:connector-curvature="0"

         id="path76"

         style="fill:#231f20;fill-opacity:1;fill-rule:nonzero;stroke:none" /><path

         d="m 2878.68,308.359 -36.02,842.351 102.97,4.41 29.84,-698.218 259.52,11.11 6.16,-144.16 -362.47,-15.493 z"

         inkscape:connector-curvature="0"

         id="path78"

         style="fill:none;stroke:#231f20;stroke-width:49.4742012;stroke-linecap:butt;stroke-linejoin:miter;stroke-miterlimit:4;stroke-opacity:1;stroke-dasharray:none" /><path

         d="m 3499.76,649.191 86.03,47.508 c 24.02,-50.976 49.24,-85.73 75.72,-104.347 26.48,-18.59 54.69,-22.622 84.75,-12.153 31.5,11.012 51.47,30.352 59.87,58.024 8.44,27.656 7.51,56.269 -2.8,85.797 -6.6,18.929 -15.52,33.91 -26.73,44.929 -11.2,11.012 -26.92,18.5 -47.15,22.481 -13.6,2.562 -43.56,5.121 -89.87,7.742 -59.65,3.187 -105.36,16.848 -137.08,40.957 -44.98,33.863 -78.53,82.5 -100.69,146.012 -14.28,40.849 -20.69,81.489 -19.23,121.929 1.44,40.41 11.91,74.46 31.52,102.19 19.59,27.7 47.97,48.06 85.21,61.04 60.16,21 113.35,14.55 159.56,-19.27 46.2,-33.85 83.01,-87.7 110.45,-161.59 l -95.27,-39.81 c -18.49,40.1 -37.72,66.86 -57.7,80.29 -19.96,13.43 -43.54,15.4 -70.72,5.91 -28.35,-9.9 -46.9,-27.26 -55.72,-52.12 -6.2,-16.14 -5.65,-34.62 1.66,-55.51 6.64,-19.06 17.24,-33.641 31.77,-43.77 18,-13 53.88,-20.539 107.61,-22.539 53.73,-2.02 95.3,-9.051 124.78,-21.059 29.47,-12.051 56.62,-33.121 81.36,-63.133 24.78,-30.09 46.03,-70.519 63.74,-121.219 16.07,-46.031 23.46,-91.8 22.14,-137.281 -1.3,-45.5 -12.57,-82.969 -33.86,-112.277 -21.29,-29.313 -52.69,-51.25 -94.25,-65.774 -60.94,-21.257 -115.92,-14.066 -165.01,21.571 -49.08,35.703 -92.41,97.5 -130.09,185.472"

         inkscape:connector-curvature="0"

         id="path80"

         style="fill:#231f20;fill-opacity:1;fill-rule:nonzero;stroke:none" /><path

         d="m 3499.76,649.191 86.03,47.508 c 24.02,-50.976 49.24,-85.73 75.72,-104.347 26.48,-18.59 54.69,-22.622 84.75,-12.153 31.5,11.012 51.47,30.352 59.87,58.024 8.44,27.656 7.51,56.269 -2.8,85.797 -6.6,18.929 -15.52,33.91 -26.73,44.929 -11.2,11.012 -26.92,18.5 -47.15,22.481 -13.6,2.562 -43.56,5.121 -89.87,7.742 -59.65,3.187 -105.36,16.848 -137.08,40.957 -44.98,33.863 -78.53,82.5 -100.69,146.012 -14.28,40.849 -20.69,81.489 -19.23,121.929 1.44,40.41 11.91,74.46 31.52,102.19 19.59,27.7 47.97,48.06 85.21,61.04 60.16,21 113.35,14.55 159.56,-19.27 46.2,-33.85 83.01,-87.7 110.45,-161.59 l -95.27,-39.81 c -18.49,40.1 -37.72,66.86 -57.7,80.29 -19.96,13.43 -43.54,15.4 -70.72,5.91 -28.35,-9.9 -46.9,-27.26 -55.72,-52.12 -6.2,-16.14 -5.65,-34.62 1.66,-55.51 6.64,-19.06 17.24,-33.641 31.77,-43.77 18,-13 53.88,-20.539 107.61,-22.539 53.73,-2.02 95.3,-9.051 124.78,-21.059 29.47,-12.051 56.62,-33.121 81.36,-63.133 24.78,-30.09 46.03,-70.519 63.74,-121.219 16.07,-46.031 23.46,-91.8 22.14,-137.281 -1.3,-45.5 -12.57,-82.969 -33.86,-112.277 -21.29,-29.313 -52.69,-51.25 -94.25,-65.774 -60.94,-21.257 -115.92,-14.066 -165.01,21.571 -49.08,35.703 -92.41,97.5 -130.09,185.472 z"

         inkscape:connector-curvature="0"

         id="path82"

         style="fill:none;stroke:#231f20;stroke-width:49.4742012;stroke-linecap:butt;stroke-linejoin:miter;stroke-miterlimit:4;stroke-opacity:1;stroke-dasharray:none" /><path

         d="m 4297.4,697.859 -457.95,717.741 86.89,55.44 457.93,-717.739 -86.87,-55.442"

         inkscape:connector-curvature="0"

         id="path84"

         style="fill:#231f20;fill-opacity:1;fill-rule:nonzero;stroke:none" /><path

         d="m 4297.4,697.859 -457.95,717.741 86.89,55.44 457.93,-717.739 -86.87,-55.442 z"

         inkscape:connector-curvature="0"

         id="path86"

         style="fill:none;stroke:#231f20;stroke-width:49.4742012;stroke-linecap:butt;stroke-linejoin:miter;stroke-miterlimit:4;stroke-opacity:1;stroke-dasharray:none" /><path

         d="m 4653.26,1084.55 c 86.84,-20.07 156.09,-2.32 207.78,53.24 50.61,54.37 62.75,124.36 36.37,209.94 -26.42,85.55 -89.9,175.15 -190.49,268.8 -101.43,94.4 -195.89,151.64 -283.42,171.83 -87.51,20.17 -156.85,2.78 -208.01,-52.17 -28.09,-30.19 -44.64,-64.49 -49.69,-102.88 -4.11,-28.83 -0.37,-62.3 11.2,-100.44 11.6,-38.13 29.28,-76.17 53.18,-114.15 32.57,-51.34 80.6,-106.55 144.07,-165.62 99.19,-92.31 192.17,-148.48 279.01,-168.55 z M 4307,1512.48 c -17.93,52.19 -12.43,93.83 16.62,125.05 29.02,31.18 69.86,39.74 122.5,25.71 52.59,-14.05 114.67,-54.35 186.2,-120.93 72.41,-67.35 117.73,-127.55 135.97,-180.49 18.25,-53 13.36,-94.52 -14.6,-124.53 -28,-30.08 -69.29,-37.92 -123.98,-23.56 -54.69,14.37 -117.41,54.48 -188.06,120.29 -71.84,66.82 -116.71,126.32 -134.65,178.46"

         inkscape:connector-curvature="0"

         id="path88"

         style="fill:#231f20;fill-opacity:1;fill-rule:nonzero;stroke:none" /><path

         d="m 4653.26,1084.55 c 86.84,-20.07 156.09,-2.32 207.78,53.24 50.61,54.37 62.75,124.36 36.37,209.94 -26.42,85.55 -89.9,175.15 -190.49,268.8 -101.43,94.4 -195.89,151.64 -283.42,171.83 -87.51,20.17 -156.85,2.78 -208.01,-52.17 -28.09,-30.19 -44.64,-64.49 -49.69,-102.88 -4.11,-28.83 -0.37,-62.3 11.2,-100.44 11.6,-38.13 29.28,-76.17 53.18,-114.15 32.57,-51.34 80.6,-106.55 144.07,-165.62 99.19,-92.31 192.17,-148.48 279.01,-168.55 z M 4307,1512.48 c -17.93,52.19 -12.43,93.83 16.62,125.05 29.02,31.18 69.86,39.74 122.5,25.71 52.59,-14.05 114.67,-54.35 186.2,-120.93 72.41,-67.35 117.73,-127.55 135.97,-180.49 18.25,-53 13.36,-94.52 -14.6,-124.53 -28,-30.08 -69.29,-37.92 -123.98,-23.56 -54.69,14.37 -117.41,54.48 -188.06,120.29 -71.84,66.82 -116.71,126.32 -134.65,178.46 z"

         inkscape:connector-curvature="0"

         id="path90"

         style="fill:none;stroke:#231f20;stroke-width:49.4742012;stroke-linecap:butt;stroke-linejoin:miter;stroke-miterlimit:4;stroke-opacity:1;stroke-dasharray:none" /><path

         d="m 5278.67,1768.49 -323.77,144.53 8.55,19.09 c 9.62,21.59 19.61,36.12 29.9,43.63 10.31,7.5 25.3,12.16 44.88,14.03 19.62,1.87 64.87,1.43 135.73,-1.32 l 199.19,-8.37 50.05,112.18 -176.53,11.06 c -70.36,4.5 -120.24,5.47 -149.75,2.92 -29.51,-2.57 -58.57,-9.43 -87.22,-20.55 8.05,44.68 -2.42,85.72 -31.35,123.18 -28.92,37.46 -72.63,69.22 -131.06,95.31 -46.03,20.55 -89.97,32.01 -131.8,34.42 -41.8,2.39 -74.73,-4.54 -98.76,-20.83 -24.05,-16.27 -47.18,-49.26 -69.35,-98.88 l -88.15,-197.51 777.45,-347.01 41.99,94.12 z m -645.64,288.19 32.85,73.63 c 17.02,38.1 28.06,60.48 33.12,67.12 11.04,13.27 26.5,20.59 46.42,21.84 19.9,1.29 42.96,-3.94 69.17,-15.62 23.4,-10.44 41.44,-22.32 54.19,-35.62 12.75,-13.3 19.8,-27.05 21.12,-41.2 1.32,-14.14 -8.08,-43.81 -28.28,-89 l -30.95,-69.38 -197.64,88.23"

         inkscape:connector-curvature="0"

         id="path92"

         style="fill:#231f20;fill-opacity:1;fill-rule:nonzero;stroke:none" /><path

         d="m 5278.67,1768.49 -323.77,144.53 8.55,19.09 c 9.62,21.59 19.61,36.12 29.9,43.63 10.31,7.5 25.3,12.16 44.88,14.03 19.62,1.87 64.87,1.43 135.73,-1.32 l 199.19,-8.37 50.05,112.18 -176.53,11.06 c -70.36,4.5 -120.24,5.47 -149.75,2.92 -29.51,-2.57 -58.57,-9.43 -87.22,-20.55 8.05,44.68 -2.42,85.72 -31.35,123.18 -28.92,37.46 -72.63,69.22 -131.06,95.31 -46.03,20.55 -89.97,32.01 -131.8,34.42 -41.8,2.39 -74.73,-4.54 -98.76,-20.83 -24.05,-16.27 -47.18,-49.26 -69.35,-98.88 l -88.15,-197.51 777.45,-347.01 41.99,94.12 z m -645.64,288.19 32.85,73.63 c 17.02,38.1 28.06,60.48 33.12,67.12 11.04,13.27 26.5,20.59 46.42,21.84 19.9,1.29 42.96,-3.94 69.17,-15.62 23.4,-10.44 41.44,-22.32 54.19,-35.62 12.75,-13.3 19.8,-27.05 21.12,-41.2 1.32,-14.14 -8.08,-43.81 -28.28,-89 l -30.95,-69.38 -197.64,88.23 z"

         inkscape:connector-curvature="0"

         id="path94"

         style="fill:none;stroke:#231f20;stroke-width:49.4742012;stroke-linecap:butt;stroke-linejoin:miter;stroke-miterlimit:4;stroke-opacity:1;stroke-dasharray:none" /></g></g></svg>