<?xml version="1.0" encoding="utf-8"?>

<!-- Generator: Adobe Illustrator 15.0.0, SVG Export Plug-In . SVG Version: 6.00 Build 0)  -->

<!DOCTYPE svg PUBLIC "-//W3C//DTD SVG 1.1//EN" "http://www.w3.org/Graphics/SVG/1.1/DTD/svg11.dtd">

<svg version="1.1" id="Layer_1" xmlns="http://www.w3.org/2000/svg" xmlns:xlink="http://www.w3.org/1999/xlink" x="0px" y="0px"

	 width="300px" height="300px" viewBox="0 0 300 300" enable-background="new 0 0 300 300" xml:space="preserve">

<path fill-rule="evenodd" clip-rule="evenodd" fill="#FFD800" d="M13.733,198.38c-0.047-14.229,3.348-27.861,7.434-41.328

	c5.142-16.945,8.426-34.174,8.303-51.915c-0.099-14.37-2.126-28.414-8.52-41.536c-1.688-3.463-3.791-6.659-5.881-9.875

	c-2.081-3.201-1.917-4.971,0.703-7.592C27.48,34.417,39.209,22.72,50.949,11.032c2.379-2.368,4.623-2.432,7.613-0.281

	c11.532,8.295,24.429,12.613,38.597,12.611c18.11-0.003,33.784-6.48,47.055-18.776c4.062-3.764,5.521-3.762,9.607,0.156

	c23.16,22.2,58.768,24.808,85.209,6.241c3.606-2.53,5.502-2.421,8.519,0.591c11.446,11.424,22.883,22.857,34.312,34.297

	c2.926,2.927,3.225,4.654,0.848,8.022c-9.323,13.223-12.98,28.173-14.003,44.054c-1.355,21.044,2.626,41.273,8.634,61.267

	c4.141,13.789,7.702,27.8,6.738,42.31c-2.161,32.664-16.64,58.032-45.919,73.827c-9.869,5.325-20.999,6.958-31.984,8.687

	c-12.985,2.043-26.133,3.208-38.676,7.575c-4.971,1.73-9.52,4.193-13.861,7.103c-2.726,1.826-6.693,1.905-9.283,0.053

	c-9.883-7.068-21.307-9.796-32.994-11.785c-12.775-2.174-25.739-3.286-38.3-6.677c-24.828-6.703-40.942-23.301-51.572-45.901

	C16.114,222.979,13.745,210.897,13.733,198.38z"/>

<path fill-rule="evenodd" clip-rule="evenodd" fill="#12100B" d="M19.874,52.351c-1.163-1.656-1.167-2.562,0.384-4.083

	c10.911-10.703,21.719-21.513,32.467-32.38c1.536-1.553,2.479-1.67,4.312-0.386c8.551,5.991,23.459,15.271,50.566,11.97

	c15.393-2.365,28.869-8.747,40.064-19.656c1.761-1.713,2.367-0.075,3.224,0.72c10.659,9.884,31.519,19.335,47.02,19.458

	c20.336,0.161,34.58-6.64,43.232-12.636c1.454-1.009,2.244-1.209,3.607,0.168c10.95,11.06,21.961,22.059,33.031,32.998

	c1.325,1.309,1.411,2.146,0.352,3.654c-9.118,13.011-12.823,27.79-14.098,43.381c-1.862,22.825,2.518,44.767,9.052,66.445

	c2.949,9.782,5.338,19.699,5.944,29.958c0.022,0.373,0.934,8.002,0.361,11.453c-0.922,6.899-1.758,13.814-4.062,20.441

	c-7.398,21.298-20.137,38.084-40.901,47.931c-7.948,3.769-16.567,5.383-25.176,6.891c-13.011,2.28-26.248,3.229-39.013,6.973

	c-7.138,2.095-13.762,5.156-19.828,9.435c-0.934,0.659-1.465,1.123-2.689,0.211c-10.461-7.789-22.681-10.922-35.254-13.036

	c-12.837-2.156-25.869-3.234-38.465-6.711c-24.013-6.63-39.102-23.042-48.984-45.056c-2.947-6.562-3.529-7.987-5.854-20.567

	c-3.083-16.687,3.306-39.932,8.445-57.975c5.403-18.967,7.496-41.35,6.202-57.996C32.52,77.31,27.676,63.46,19.874,52.351z"/>

<path fill-rule="evenodd" clip-rule="evenodd" fill="#FAE000" d="M279.394,203.415c-0.008-3.449-0.015-6.898-0.021-10.349

	c0.052-0.386,0.104-0.773,0.155-1.159c0.093-0.003,0.187-0.005,0.277-0.008c0,4.251,0,8.5,0,12.763

	C279.236,204.405,279.545,203.827,279.394,203.415z"/>

<path fill-rule="evenodd" clip-rule="evenodd" fill="#FFD900" d="M242.293,20.067c10.3,10.365,20.374,20.503,30.476,30.668

	c-17.012,17.023-34.15,34.189-51.305,51.339c-53.286,53.269-106.588,106.523-159.82,159.847c-1.733,1.735-2.806,1.906-4.792,0.496

	c-10.742-7.627-18.939-17.367-25.004-29.023c-0.948-1.82-0.132-2.566,0.928-3.625c17.8-17.767,35.583-35.548,53.369-53.327

	C137.553,125.061,188.96,73.679,240.359,22.29C241.05,21.601,241.646,20.816,242.293,20.067z"/>

<path fill-rule="evenodd" clip-rule="evenodd" fill="#12100B" d="M74.594,208.172c4.746,4.762,9.017,9.065,13.312,13.343

	c0.729,0.725,1.554,0.702,2.391,0.063c0.596-0.455,1.34-0.632,1.8,0.087c0.408,0.638-0.279,1.058-0.668,1.453

	c-1.588,1.613-3.203,3.201-4.803,4.805c-0.445,0.445-0.96,0.804-1.534,0.36c-0.608-0.47-0.363-1.111,0.065-1.538

	c1.312-1.31,0.53-2.223-0.458-3.202c-5.319-5.266-10.625-10.545-15.92-15.834c-1.048-1.046-2.062-1.942-3.479-0.561

	c-0.574,0.56-1.082,0.298-1.496-0.197c-0.452-0.542,0.042-0.93,0.356-1.248c2.212-2.242,4.464-4.448,6.676-6.692

	c0.838-0.849,1.766-0.536,2.752-0.434c6.545,0.688,13.098,1.325,20.185,2.031c-3.419-3.411-6.513-6.51-9.624-9.595

	c-0.843-0.837-1.73-0.71-2.659-0.068c-0.511,0.352-1.141,0.462-1.512-0.201c-0.284-0.504,0.072-0.939,0.424-1.292

	c1.667-1.675,3.342-3.341,5.016-5.01c0.386-0.385,0.918-0.563,1.336-0.276c0.6,0.41,0.514,1.082,0.048,1.534

	c-1.693,1.644-0.25,2.601,0.768,3.609c5.525,5.478,14.988,15.054,16.572,16.433c0.792,0.636,2.304,1.777,1.604,2.959

	c-1.021,1.466-2.226,2.801-4.583,2.476C95.914,210.454,77.89,208.648,74.594,208.172z"/>

<path fill-rule="evenodd" clip-rule="evenodd" fill="#12100B" d="M165.229,146.599c0.414-0.171,1.081-0.801,1.587-0.235

	c0.564,0.632,0.181,1.245-0.365,1.787c-3.075,3.05-6.128,6.12-9.193,9.179c-0.421,0.422-0.847,0.867-1.5,0.34

	c-0.679-0.549-0.311-1.006,0.121-1.448c1.062-1.087,0.51-1.687-0.627-2.121c-0.091-0.035-4.001-2.573-5.367-1.732

	c-2.446,1.505-4.328,3.955-6.356,6.093c-0.522,0.552,1.806,6.711,2.509,6.932c0.164,0.052,0.375-0.009,0.552-0.061

	c0.734-0.21,1.373-1.787,2.137-0.568c0.767,1.217-0.794,1.785-1.454,2.515c-1.25,1.387-2.615,2.672-3.953,3.978

	c-0.394,0.382-0.786,0.985-1.459,0.401c-0.448-0.389-0.486-0.88-0.091-1.279c1.354-1.371,0.531-2.663-0.022-4.03

	c-3.385-8.343-6.681-16.722-10.146-25.031c-0.999-2.333-0.521-2.238,0.084-3.149c0.2-0.303,1.528-1.596,1.887-1.838

	c0.882-0.597,0.844-1.236,3.192-0.188c8.667,3.603,24.797,9.931,26.134,10.489C164.232,147.191,164.815,146.771,165.229,146.599z"/>

<path fill-rule="evenodd" clip-rule="evenodd" fill="#12100B" d="M194.82,86.326c0.396,3.625,5.797,10.644,11.928,12.522

	c5.995,1.84,11.562-3.958,10.422-10.397c-0.098-0.565-0.327-1.107-0.426-1.672c-0.089-0.536-0.314-1.25,0.376-1.493

	c0.854-0.297,1.014,0.145,1.38,1.074c0.997,4.118,0.705,2.546,1.057,7.417c0.354,4.87-12.041,20.134-26.396,7.694

	c-8.276-8.04-7.061-22.34,5.022-26.438c1.188-0.643,2.75-0.817,2.527-2.908c-0.097-0.917,0.929-1.076,1.682-0.404

	c2.08,1.857,4.146,3.733,6.215,5.601c0.445,0.4,0.894,0.835,0.436,1.459c-0.465,0.632-1.011,0.219-1.539,0.03

	c-0.981-0.354-1.699-0.587-2.951-1.022c-1.255-0.434-1.598-0.515-4.015-0.024C198.128,78.256,194.422,82.699,194.82,86.326z"/>

<path fill-rule="evenodd" clip-rule="evenodd" fill="#12100B" d="M239.071,75.166c0,2.354-1.909,4.264-4.261,4.264

	c-2.357,0-4.267-1.909-4.267-4.264c0-2.355,1.909-4.265,4.267-4.265C237.162,70.901,239.071,72.811,239.071,75.166z"/>

<circle fill-rule="evenodd" clip-rule="evenodd" fill="#12100B" cx="118.944" cy="188.975" r="4.264"/>

<path fill-rule="evenodd" clip-rule="evenodd" fill="#12100B" d="M182.56,130.609c-0.06,2.297-1.863,3.978-4.182,3.9

	c-2.283-0.077-3.969-1.902-3.892-4.215c0.074-2.287,1.929-4.029,4.196-3.941C180.942,126.44,182.622,128.286,182.56,130.609z"/>

<path fill-rule="evenodd" clip-rule="evenodd" fill="#FBD700" d="M146.608,150.667c-1.703,1.525-2.94,2.641-4.188,3.745

	c-0.205,0.182-0.454,0.313-0.892,0.611c-0.99-2.404-1.941-4.716-3.114-7.566C141.241,148.565,143.627,149.5,146.608,150.667z"/>

</svg>
