<?xml version="1.0" encoding="UTF-8" standalone="no"?>

<!-- Created with Inkscape (http://www.inkscape.org/) -->



<svg

   xmlns:dc="http://purl.org/dc/elements/1.1/"

   xmlns:cc="http://creativecommons.org/ns#"

   xmlns:rdf="http://www.w3.org/1999/02/22-rdf-syntax-ns#"

   xmlns:svg="http://www.w3.org/2000/svg"

   xmlns="http://www.w3.org/2000/svg"

   xmlns:inkscape="http://www.inkscape.org/namespaces/inkscape"

   version="1.1"

   width="570.04999"

   height="570.04999"

   viewBox="0 0 570.04999 570.04999"

   id="svg2"

   xml:space="preserve"><metadata

     id="metadata8"><rdf:RDF><cc:Work

         rdf:about=""><dc:format>image/svg+xml</dc:format><dc:type

           rdf:resource="http://purl.org/dc/dcmitype/StillImage" /></cc:Work></rdf:RDF></metadata><defs

     id="defs6" /><g

     transform="matrix(1.25,0,0,-1.25,0,570.05)"

     id="g10"><g

       transform="scale(0.1,0.1)"

       id="g12"><path

         d="M 4534.53,2280.19 C 4534.53,1035.17 3525.24,25.8789 2280.21,25.8789 1035.18,25.8789 25.875,1035.17 25.875,2280.19 c 0,1245.03 1009.305,2254.33 2254.335,2254.33 1245.03,0 2254.32,-1009.3 2254.32,-2254.33"

         inkscape:connector-curvature="0"

         id="path14"

         style="fill:#ffffff;fill-opacity:1;fill-rule:nonzero;stroke:none" /><path

         d="M 4534.53,2280.19 C 4534.53,1035.17 3525.24,25.8789 2280.21,25.8789 1035.18,25.8789 25.875,1035.17 25.875,2280.19 c 0,1245.03 1009.305,2254.33 2254.335,2254.33 1245.03,0 2254.32,-1009.3 2254.32,-2254.33 z"

         inkscape:connector-curvature="0"

         id="path16"

         style="fill:none;stroke:#f6c449;stroke-width:51.75180054;stroke-linecap:butt;stroke-linejoin:miter;stroke-miterlimit:4;stroke-opacity:1;stroke-dasharray:none" /><path

         d="m 4480.1,1825.87 c 0,0 -372.51,-1799.9911 -2208.52,-1799.9911 C 459.102,25.8789 63.0586,1825.87 63.0586,1825.87 l 4417.0414,0"

         inkscape:connector-curvature="0"

         id="path18"

         style="fill:#303390;fill-opacity:1;fill-rule:nonzero;stroke:none" /><path

         d="m 4444.98,2880.92 -4337.628,-1.04 c 265.601,949.07 1130.308,1654.64 2164.228,1654.64 1037.02,0 1910.47,-700.2 2173.4,-1653.6"

         inkscape:connector-curvature="0"

         id="path20"

         style="fill:#ee2722;fill-opacity:1;fill-rule:nonzero;stroke:none" /><path

         d="m 4444.98,2880.92 -4337.628,-1.04 c 265.601,949.07 1130.308,1654.64 2164.228,1654.64 1037.02,0 1910.47,-700.2 2173.4,-1653.6 z"

         inkscape:connector-curvature="0"

         id="path22"

         style="fill:none;stroke:#f6c449;stroke-width:51.75180054;stroke-linecap:butt;stroke-linejoin:miter;stroke-miterlimit:4;stroke-opacity:1;stroke-dasharray:none" /><path

         d="m 1420.82,2880.93 c 0,0 2.16,205.73 -178.98,220.82 0,0 329.92,-12.93 375.21,280.32 l 1276.96,0 c 0,0 55.19,-280.32 414.02,-280.32 0,0 -175.96,2.12 -175.96,-220.82 l -1711.25,0"

         inkscape:connector-curvature="0"

         id="path24"

         style="fill:#ffffff;fill-opacity:1;fill-rule:nonzero;stroke:none" /><path

         d="m 1420.82,2880.93 c 0,0 2.16,205.73 -178.98,220.82 0,0 329.92,-12.93 375.21,280.32 l 1276.96,0 c 0,0 55.19,-280.32 414.02,-280.32 0,0 -175.96,2.12 -175.96,-220.82 l -1711.25,0 z"

         inkscape:connector-curvature="0"

         id="path26"

         style="fill:none;stroke:#f6c449;stroke-width:51.75180054;stroke-linecap:round;stroke-linejoin:round;stroke-miterlimit:4;stroke-opacity:1;stroke-dasharray:none" /><path

         d="m 1617.05,3382.07 c 0,0 23.7,319.14 -267.4,409.71 0,0 243.67,-81.96 465.77,140.15 0,0 217.79,-105.67 461.45,34.5 0,0 191.92,-140.17 465.78,-34.5 0,0 182.4,-186.31 444.61,-140.15 0,0 -272.56,-23.73 -293.25,-409.71 l -1276.96,0"

         inkscape:connector-curvature="0"

         id="path28"

         style="fill:#eda6b0;fill-opacity:1;fill-rule:nonzero;stroke:none" /><path

         d="m 1617.05,3382.07 c 0,0 23.7,319.14 -267.4,409.71 0,0 243.67,-81.96 465.77,140.15 0,0 217.79,-105.67 461.45,34.5 0,0 191.92,-140.17 465.78,-34.5 0,0 182.4,-186.31 444.61,-140.15 0,0 -272.56,-23.73 -293.25,-409.71 l -1276.96,0 z"

         inkscape:connector-curvature="0"

         id="path30"

         style="fill:none;stroke:#f6c449;stroke-width:51.75180054;stroke-linecap:round;stroke-linejoin:round;stroke-miterlimit:4;stroke-opacity:1;stroke-dasharray:none" /><path

         d="m 1800.32,4000.07 158.71,-462.32"

         inkscape:connector-curvature="0"

         id="path32"

         style="fill:none;stroke:#f6c449;stroke-width:51.75180054;stroke-linecap:round;stroke-linejoin:round;stroke-miterlimit:4;stroke-opacity:1;stroke-dasharray:none" /><path

         d="m 1855.13,1017.3 c -173,-44.671 -221.56,161.74 -221.56,161.74 -235.76,0 -230.01,155.24 -230.01,155.24 l 0,506.02 1730.8,0 0,-508.88 c 0,0 -28.74,-171.73 -224.24,-152.38 0,0 -31.64,-218.501 -264.51,-161.01 0,0 -97.75,-218.491 -365.14,-218.491 0,0 -284.64,-37.398 -425.34,217.761"

         inkscape:connector-curvature="0"

         id="path34"

         style="fill:#ffffff;fill-opacity:1;fill-rule:nonzero;stroke:none" /><path

         d="m 2276.87,4055.27 0,-476.1"

         inkscape:connector-curvature="0"

         id="path36"

         style="fill:none;stroke:#f6c449;stroke-width:51.75180054;stroke-linecap:round;stroke-linejoin:round;stroke-miterlimit:4;stroke-opacity:1;stroke-dasharray:none" /><path

         d="M 2776.69,4000.07 2597.31,3537.75"

         inkscape:connector-curvature="0"

         id="path38"

         style="fill:none;stroke:#f6c449;stroke-width:51.75180054;stroke-linecap:round;stroke-linejoin:round;stroke-miterlimit:4;stroke-opacity:1;stroke-dasharray:none" /><path

         d="m 2076.34,1595.92 c 0,0 -43.13,-8.61 -129.38,-94.86 0,0 -25.89,-17.27 17.24,-17.27 0,0 278.89,14.38 396.77,-103.5 0,0 46.01,-20.13 100.62,-20.13 0,0 21.56,-10.07 71.88,40.26 0,0 11.51,51.75 -20.13,51.75 0,0 -132.23,166.77 -437,143.75"

         inkscape:connector-curvature="0"

         id="path40"

         style="fill:#f6c449;fill-opacity:1;fill-rule:nonzero;stroke:none" /><path

         d="m 1886.59,1417.67 c 0,0 14.37,40.26 40.25,40.26 l 106.37,0 c 0,0 58.94,-7.21 33.06,-33.06 0,0 -150.93,-265.96 38.82,-481.589 0,0 -123.64,-17.269 -230.01,63.259 0,0 -100.63,195.49 11.51,411.13"

         inkscape:connector-curvature="0"

         id="path42"

         style="fill:#f6c449;fill-opacity:1;fill-rule:nonzero;stroke:none" /><path

         d="m 1906.71,951.91 c 0,0 51.74,-100.629 146.63,-123.629 0,0 281.76,-46.011 462.9,135.141 0,0 34.48,34.476 0,34.476 0,0 -130.84,-18.668 -155.27,5.752 0,0 -232.88,-146.63 -454.26,-51.74"

         inkscape:connector-curvature="0"

         id="path44"

         style="fill:#f6c449;fill-opacity:1;fill-rule:nonzero;stroke:none" /><path

         d="m 2122.33,796.648 c 0,0 432.71,-130.796 566.41,284.642 0,0 -54.65,-66.14 -97.78,-66.14 0,0 -155.23,-218.502 -468.63,-218.502"

         inkscape:connector-curvature="0"

         id="path46"

         style="fill:#f6c449;fill-opacity:1;fill-rule:nonzero;stroke:none" /><path

         d="m 2274.72,1193.41 c 0,0 -2.87,-66.13 17.25,-129.38 0,0 284.64,-161.01 422.64,97.74 0,0 5.74,0.02 -8.63,123.66 0,0 -126.51,-184.01 -376.65,-69.01 0,0 -54.61,8.62 -54.61,-23.01"

         inkscape:connector-curvature="0"

         id="path48"

         style="fill:#f6c449;fill-opacity:1;fill-rule:nonzero;stroke:none" /><path

         d="m 2099.33,1432.05 c 0,0 -146.62,-255.88 23,-474.39 0,0 107.83,-12.949 149.52,28.75 0,0 20.12,51.75 -5.77,77.62 0,0 -40.25,94.88 0,267.39 0,0 48.89,63.25 -31.61,92 l -97.76,28.75 c 0,0 -37.38,-2.87 -37.38,-20.12"

         inkscape:connector-curvature="0"

         id="path50"

         style="fill:#f6c449;fill-opacity:1;fill-rule:nonzero;stroke:none" /><path

         d="m 2128.08,1624.67 c 0,0 357.62,72.98 468.63,-140.88 0,0 17.79,-81.5 -44.55,-44.55 0,0 -73.31,162.43 -424.08,185.43"

         inkscape:connector-curvature="0"

         id="path52"

         style="fill:#f6c449;fill-opacity:1;fill-rule:nonzero;stroke:none" /><path

         d="m 2303.06,1354.84 c 0,0 -19.72,-59.16 -19.72,-76.41 0,0 -2.46,-14.78 14.8,-32.04 0,0 263.68,-137.99 381.96,56.68 0,0 7.4,17.27 7.4,49.3 0,0 -20.3,69.59 -61.59,110.89 0,0 -45.85,-186.3 -278.5,-101.04 0,0 -24.62,12.32 -44.35,-7.38"

         inkscape:connector-curvature="0"

         id="path54"

         style="fill:#f6c449;fill-opacity:1;fill-rule:nonzero;stroke:none" /><path

         d="m 1893.04,1025.21 -37.91,-12.23 c -173,-44.652 -221.56,161.75 -221.56,161.75 -235.76,0 -230.01,155.25 -230.01,155.25 l 0,506.02"

         inkscape:connector-curvature="0"

         id="path56"

         style="fill:none;stroke:#f6c449;stroke-width:51.75180054;stroke-linecap:butt;stroke-linejoin:miter;stroke-miterlimit:4;stroke-opacity:1;stroke-dasharray:none" /><path

         d="m 61.0234,1836 4421.0966,0"

         inkscape:connector-curvature="0"

         id="path58"

         style="fill:none;stroke:#f6c449;stroke-width:51.75180054;stroke-linecap:butt;stroke-linejoin:miter;stroke-miterlimit:4;stroke-opacity:1;stroke-dasharray:none" /><path

         d="m 1162.93,2686.69 c -36.49,-3.37 -59.43,-30.28 -71.94,-71.76 l -208.564,-675.01 -28.164,0 -175.176,524.75 -7.305,0 -189.777,-524.75 -29.207,0 -221.07,675.01 c -17.727,53.82 -28.153,65.03 -71.938,71.76 l 0,28.02 306.566,0 0,-28.02 c -37.535,-3.37 -66.738,-5.61 -66.738,-47.09 0,-12.34 3.129,-24.67 7.293,-37 l 124.098,-404.79 2.086,0 122.008,342 -36.5,107.63 c -13.551,24.67 -25.032,37 -75.082,39.25 l 0,28.02 325.359,0 0,-28.02 c -44.852,-3.37 -75.094,-4.5 -75.094,-42.61 0,-13.45 8.34,-40.37 14.606,-61.67 l 111.578,-373.38 2.086,0 115.755,381.23 c 3.12,11.21 7.3,23.54 7.3,47.08 0,45.98 -36.51,47.1 -71.962,49.35 l 0,28.02 189.782,0 0,-28.02"

         inkscape:connector-curvature="0"

         id="path60"

         style="fill:#f6c449;fill-opacity:1;fill-rule:nonzero;stroke:none" /><path

         d="m 1307.91,2731.54 c 44.84,0 80.29,-39.25 80.29,-87.46 0,-49.34 -35.45,-86.33 -80.29,-86.33 -47.97,0 -81.34,38.11 -81.34,86.33 0,47.08 34.41,87.46 81.34,87.46 z m 121.99,-774.79 -249.22,0 0,26.9 c 37.54,10.09 55.27,13.46 55.27,67.28 l 0,329.66 c 0,50.45 -15.64,58.3 -55.27,66.14 l 0,26.9 200.22,0 0,-426.06 c 0,-34.77 8.34,-59.43 49,-63.92 l 0,-26.9"

         inkscape:connector-curvature="0"

         id="path62"

         style="fill:#f6c449;fill-opacity:1;fill-rule:nonzero;stroke:none" /><path

         d="m 1719.8,1956.75 -249.22,0 0,26.9 c 41.71,0 53.18,40.36 53.18,67.28 l 0,571.84 c 0,12.34 -2.09,65.03 -53.18,65.03 l 0,26.91 198.13,0 0,-663.78 c 0,-32.51 10.43,-67.28 51.09,-67.28 l 0,-26.9"

         inkscape:connector-curvature="0"

         id="path64"

         style="fill:#f6c449;fill-opacity:1;fill-rule:nonzero;stroke:none" /><path

         d="m 2009.7,1956.75 -249.22,0 0,26.9 c 41.71,0 53.18,40.36 53.18,67.28 l 0,571.84 c 0,12.34 -2.09,65.03 -53.18,65.03 l 0,26.91 198.12,0 0,-663.78 c 0,-32.51 10.44,-67.28 51.1,-67.28 l 0,-26.9"

         inkscape:connector-curvature="0"

         id="path66"

         style="fill:#f6c449;fill-opacity:1;fill-rule:nonzero;stroke:none" /><path

         d="m 2452.89,2096.91 c -19.82,-25.79 -56.31,-75.14 -117.83,-75.14 -99.08,0 -122.02,114.38 -125.15,209.68 l 262.8,0 c -3.14,60.55 -16.68,255.65 -198.14,255.65 -119.92,0 -214.81,-105.4 -214.81,-271.35 0,-191.74 106.36,-274.69 211.69,-274.69 83.42,0 142.86,35.86 206.48,140.15 l -25.04,15.7 z m -248.18,176.02 c 0,154.74 35.45,179.41 74.03,179.41 36.49,0 50.05,-28.03 56.32,-52.7 8.34,-33.64 8.34,-91.93 9.38,-126.71 l -139.73,0"

         inkscape:connector-curvature="0"

         id="path68"

         style="fill:#f6c449;fill-opacity:1;fill-rule:nonzero;stroke:none" /><path

         d="m 3345.51,1956.75 -248.19,0 0,26.9 c 51.09,2.24 51.09,37 51.09,63.92 l 0,271.34 c 0,34.76 0,93.07 -56.32,93.07 -43.79,0 -87.57,-56.06 -87.57,-65.03 l 0,-299.38 c 0,-35.89 9.37,-60.55 49,-63.92 l 0,-26.9 -244.02,0 0,26.9 c 50.06,3.37 50.06,38.12 50.06,63.92 l 0,271.34 c 0,35.88 0,93.07 -57.35,93.07 -44.84,0 -86.56,-56.06 -86.56,-65.03 l 0,-299.38 c 0,-34.77 7.3,-59.43 47.99,-63.92 l 0,-26.9 -250.27,0 0,26.9 c 34.39,6.74 57.34,12.35 57.34,67.28 l 0,329.66 c 0,58.3 -27.1,61.66 -57.34,66.14 l 0,26.9 199.17,0 0,-80.71 2.07,0 c 14.61,26.91 60.49,94.18 148.08,94.18 94.89,0 120.96,-61.67 136.6,-97.55 46.94,66.15 93.86,97.55 154.34,97.55 57.36,0 139.74,-34.76 139.74,-158.09 l 0,-281.44 c 0,-28.03 0,-62.8 52.14,-63.92 l 0,-26.9"

         inkscape:connector-curvature="0"

         id="path70"

         style="fill:#f6c449;fill-opacity:1;fill-rule:nonzero;stroke:none" /><path

         d="m 4011.84,1956.75 -364.97,0 0,28.02 c 56.3,5.62 96.97,10.09 96.97,79.62 l 0,542.68 c 0,74.01 -49.01,76.25 -96.97,79.62 l 0,28.02 364.97,0 0,-28.02 c -49,-2.25 -99.06,-3.37 -99.06,-79.62 l 0,-542.68 c 0,-71.76 41.72,-75.13 99.06,-79.62 l 0,-28.02"

         inkscape:connector-curvature="0"

         id="path72"

         style="fill:#f6c449;fill-opacity:1;fill-rule:nonzero;stroke:none" /><path

         d="m 4417.48,1956.75 -364.98,0 0,28.02 c 56.32,5.62 96.99,10.09 96.99,79.62 l 0,542.68 c 0,74.01 -49.01,76.25 -96.99,79.62 l 0,28.02 364.98,0 0,-28.02 c -49.01,-2.25 -99.05,-3.37 -99.05,-79.62 l 0,-542.68 c 0,-71.76 41.7,-75.13 99.05,-79.62 l 0,-28.02"

         inkscape:connector-curvature="0"

         id="path74"

         style="fill:#f6c449;fill-opacity:1;fill-rule:nonzero;stroke:none" /><path

         d="m 3134.36,1844.62 0,-508.9 c 0,0 -28.74,-171.72 -224.24,-152.38 0,0 -31.64,-218.5 -264.51,-160.99"

         inkscape:connector-curvature="0"

         id="path76"

         style="fill:none;stroke:#f6c449;stroke-width:51.75180054;stroke-linecap:butt;stroke-linejoin:miter;stroke-miterlimit:4;stroke-opacity:1;stroke-dasharray:none" /><path

         d="m 1726.29,348.141 -159.27,0 0,11.14 c 49.64,2.34 51.28,15.84 51.28,59.239 l 0,293.25 -29.46,0 c -59.99,0 -74.73,-11.141 -86.73,-75.071 l -13.08,0 3.26,99.711 307.64,0 3.26,-99.711 -13.09,0 c -11.45,64.52 -26.72,75.071 -86.72,75.071 l -29.45,0 0,-299.688 c 0,-39.891 6.54,-51.051 52.36,-52.801 l 0,-11.14"

         inkscape:connector-curvature="0"

         id="path78"

         style="fill:#ffffff;fill-opacity:1;fill-rule:nonzero;stroke:none" /><path

         d="m 1863.76,748.73 c 16.36,0 28.36,-13.5 28.36,-29.929 0,-16.992 -12,-29.903 -28.36,-29.903 -19.64,0 -27.27,18.762 -27.27,29.903 0,11.16 8.18,29.929 27.27,29.929 z m -61.1,-391.781 c 33.83,1.742 43.1,5.25 43.1,51.02 l 0,136.062 c 0,34.61 -10.37,35.207 -19.1,35.207 -7.63,0 -14.73,-1.187 -21.82,-2.367 l 0,8.809 c 28.37,9.961 56.19,21.101 84.56,32.261 l 2.18,-1.769 0,-208.203 c 0,-38.719 2.72,-48.688 40.37,-51.02 l 0,-8.808 -129.29,0 0,8.808"

         inkscape:connector-curvature="0"

         id="path80"

         style="fill:#ffffff;fill-opacity:1;fill-rule:nonzero;stroke:none" /><path

         d="m 1957.04,356.949 c 32.18,2.332 42,9.961 42,42.223 l 0,279.75 c 0,26.398 -3.28,35.797 -24.55,35.797 -7.1,0 -12.01,-0.59 -18.55,-1.18 l 0,9.371 c 28.91,7.641 57.82,15.84 86.73,25.82 l 2.19,-1.179 0,-350.16 c 0,-33.993 9.26,-38.7 40.9,-40.442 l 0,-8.808 -128.72,0 0,8.808"

         inkscape:connector-curvature="0"

         id="path82"

         style="fill:#ffffff;fill-opacity:1;fill-rule:nonzero;stroke:none" /><path

         d="m 2134.86,379.82 c 0,-21.718 57.26,-37.55 84.54,-37.55 100.9,0 133.09,92.679 133.09,145.449 0,62.769 -31.1,130.222 -97.1,130.222 -41.44,0 -70.36,-34.031 -73.63,-47.511 l -1.09,0 0,177.121 -2.73,1.179 c -26.17,-9.98 -52.91,-18.179 -79.09,-25.82 l 0,-9.371 c 3.28,0.59 8.74,0.59 12,0.59 24.01,0 24.01,-12.32 24.01,-29.93 l 0,-304.379 z m 45.81,157.168 c 2.17,33.442 37.09,43.992 54.55,43.992 49.63,0 69.26,-60.41 69.26,-114.96 0,-38.7 -8.73,-104.989 -71.46,-104.989 -13.62,0 -52.35,7.617 -52.35,28.16 l 0,147.797"

         inkscape:connector-curvature="0"

         id="path84"

         style="fill:#ffffff;fill-opacity:1;fill-rule:nonzero;stroke:none" /><path

         d="m 2620.32,369.25 c -29.46,-8.219 -50.18,-16.43 -75.83,-26.391 l -1.09,1.18 0,48.66 -23.44,-25.199 c -21.29,-22.891 -47.47,-25.23 -57.28,-25.23 -22.36,0 -64.92,14.082 -64.92,76.25 l 0,147.808 c 0,35.184 -17.44,36.371 -33.81,37.524 l 0,8.207 79.64,0 0,-191.207 c 0,-8.18 4.89,-44.551 40.91,-44.551 16.36,0 32.72,8.179 47.45,21.09 4.92,4.711 8.73,10.578 8.73,29.929 l 0,137.821 c 0,23.461 -2.2,35.781 -40.37,36.968 l 0,9.95 86.19,0 0,-201.161 c 0,-21.117 1.1,-34.597 33.82,-33.437 l 0,-8.211"

         inkscape:connector-curvature="0"

         id="path86"

         style="fill:#ffffff;fill-opacity:1;fill-rule:nonzero;stroke:none" /><path

         d="m 2673.23,544.031 c 0,34.61 -10.37,35.207 -19.09,35.207 -7.64,0 -13.64,-1.187 -18.55,-2.367 l 0,9.391 c 26.72,9.379 54.01,19.949 80.73,31.679 l 2.72,-1.179 0,-52.211 1.09,0 c 25.65,41.66 44.18,53.39 64.9,53.39 18.55,0 29.46,-12.32 29.46,-31.679 0,-14.653 -7.64,-25.813 -20.72,-25.813 -19.09,0 -24.55,20.531 -37.62,20.531 -13.11,0 -37.11,-29.339 -37.11,-48.089 l 0,-131.969 c 0,-40.481 18.55,-42.82 46.37,-43.973 l 0,-8.808 -130.9,0 0,8.808 c 29.99,5.852 38.72,7.621 38.72,40.442 l 0,146.64"

         inkscape:connector-curvature="0"

         id="path88"

         style="fill:#ffffff;fill-opacity:1;fill-rule:nonzero;stroke:none" /><path

         d="m 3059.96,575.691 0,22.887 -42,0 c -8.72,0 -18.55,1.16 -30.01,5.863 -21.82,8.789 -33.8,13.5 -52.89,13.5 -41.44,0 -93.82,-28.16 -93.82,-97.961 0,-34.011 18.53,-60.98 50.73,-76.238 -48.56,-46.351 -48.56,-53.961 -48.56,-63.922 0,-16.422 14.19,-23.468 28.91,-31.09 -27.82,-21.109 -53.45,-45.16 -53.45,-71.558 0,-31.094 40.9,-56.883 96.55,-56.883 49.09,0 139.62,32.84 139.62,99.109 0,16.422 -7.62,59.832 -66,62.75 l -70.36,3.524 c -16.35,0.59 -42.55,2.359 -42.55,15.84 0,11.718 21.84,35.769 32.72,36.949 3.29,0 22.92,-2.922 29.48,-2.922 30.54,0 86.73,22.859 86.73,86.211 0,29.328 -4.94,40.461 -10.37,53.941 l 45.27,0 z m -173.44,-26.972 c 0,39.293 21.26,52.793 40.88,52.793 46.92,0 55.66,-78.59 55.66,-95.024 0,-12.898 -2.73,-56.297 -39.84,-56.297 -42.54,0 -56.7,52.2 -56.7,98.528 z m -29.47,-253.367 c 0,17.578 9.82,29.918 26.73,51.609 25.65,-5.84 37.62,-5.84 88.9,-7.609 40.37,-1.192 67.09,-2.372 67.09,-28.75 0,-31.082 -37.08,-56.883 -100.92,-56.883 -62.17,0 -81.8,23.453 -81.8,41.633"

         inkscape:connector-curvature="0"

         id="path90"

         style="fill:#ffffff;fill-opacity:1;fill-rule:nonzero;stroke:none" /><path

         d="M 4534.53,2280.19 C 4534.53,1035.17 3525.24,25.8789 2280.21,25.8789 1035.18,25.8789 25.875,1035.17 25.875,2280.19 c 0,1245.03 1009.305,2254.33 2254.335,2254.33 1245.03,0 2254.32,-1009.3 2254.32,-2254.33 z"

         inkscape:connector-curvature="0"

         id="path92"

         style="fill:none;stroke:#f6c449;stroke-width:51.75180054;stroke-linecap:butt;stroke-linejoin:miter;stroke-miterlimit:4;stroke-opacity:1;stroke-dasharray:none" /><path

         d="m 1664.67,1549.66 -73.51,-181.94 c -5.59,-13.82 -8.55,-22.87 -8.89,-27.19 -0.32,-4.3 0.96,-8.44 3.82,-12.44 2.85,-3.98 8.52,-7.69 17,-11.1 l 5.11,-2.09 -2.22,-5.49 -116.96,47.28 2.22,5.47 5.89,-2.36 c 9.49,-3.83 16.69,-5.47 21.63,-4.88 4.93,0.58 8.88,2.52 11.86,5.8 2.98,3.32 7.34,12.04 13.05,26.21 l 46.65,115.43 c 4.19,10.38 6.32,17.06 6.38,20.04 0.06,3 -0.88,5.95 -2.82,8.81 -1.95,2.9 -4.67,5.05 -8.15,6.47 -5.59,2.25 -13.07,3.22 -22.45,2.95 l -0.72,6.69 96.71,4.53 5.4,-2.19"

         inkscape:connector-curvature="0"

         id="path94"

         style="fill:#f6c449;fill-opacity:1;fill-rule:nonzero;stroke:none" /><path

         d="m 1742.06,1300.29 c -4.12,-10.21 -10.07,-17.16 -17.8,-20.86 -7.74,-3.72 -15.54,-3.96 -23.37,-0.81 -5.04,2.05 -9.33,5.54 -12.87,10.51 -3.55,4.99 -5.21,11.46 -4.99,19.42 0.22,7.96 2.39,17.05 6.53,27.29 3.21,7.96 7.2,15.2 11.97,21.77 4.78,6.55 9.08,11.27 12.91,14.15 2.49,1.89 6.12,3.66 10.88,5.3 20,-29.98 25.58,-55.56 16.74,-76.77 z m 74.87,95.36 c 9.4,5.5 16.21,13.51 20.45,23.95 5.62,13.94 4.79,28.2 -2.48,42.73 -7.28,14.53 -21.4,26.05 -42.39,34.52 -21.74,8.77 -41.12,10.07 -58.17,3.82 -17.04,-6.23 -28.56,-16.76 -34.54,-31.56 -4.54,-11.22 -6.07,-22.07 -4.6,-32.55 1.47,-10.47 8.55,-26.11 21.26,-46.9 -19.46,-0.73 -34.53,-4.15 -45.21,-10.23 -10.68,-6.06 -18.4,-15.03 -23.2,-26.89 -6.29,-15.56 -5.63,-31.15 1.97,-46.77 7.59,-15.59 22.31,-27.82 44.15,-36.65 23.05,-9.3 43.77,-10.48 62.19,-3.53 18.42,6.92 31.24,19.33 38.45,37.21 5.15,12.73 6.74,25.25 4.77,37.5 -1.98,12.28 -8.7,27.38 -20.15,45.32 15.59,1.18 28.08,4.51 37.5,10.03 z m -67.05,45.33 c -2.12,10.78 -1.56,20.15 1.66,28.11 3.17,7.84 8.29,13.39 15.35,16.68 7.07,3.28 14.13,3.51 21.17,0.67 7.77,-3.14 12.7,-8.48 14.8,-16.03 2.85,-9.87 1.42,-21.85 -4.28,-35.98 -3.26,-8.04 -7.2,-15.04 -11.83,-21 -4.64,-5.95 -10.04,-10.86 -16.18,-14.69 -11.7,17.37 -18.59,31.43 -20.69,42.24"

         inkscape:connector-curvature="0"

         id="path96"

         style="fill:#f6c449;fill-opacity:1;fill-rule:nonzero;stroke:none" /><path

         d="m 2840.9,1299.74 c 16.8,21.82 26.42,45.66 28.91,71.52 2.48,25.85 -0.97,50.45 -10.4,73.81 -7.27,17.97 -17.18,32.61 -29.67,43.93 -12.53,11.3 -26.03,18.33 -40.51,21.11 -14.49,2.76 -28.21,1.56 -41.09,-3.66 -12.04,-4.87 -22.3,-12.89 -30.77,-24.09 -8.46,-11.2 -13.26,-24.09 -14.37,-38.64 -1.12,-14.55 1.26,-29.13 7.15,-43.68 8.47,-20.99 20.72,-35.27 36.73,-42.83 16,-7.58 32.34,-7.97 49.06,-1.22 5.22,2.1 9.93,4.78 14.11,8.02 4.18,3.25 8.93,7.94 14.28,14.09 3.35,-16.75 3.76,-32.54 1.26,-47.42 -2.51,-14.89 -8.4,-28.91 -17.69,-42.08 -9.26,-13.15 -22.06,-25.47 -38.4,-36.91 l 1.81,-4.51 c 29.61,13.25 52.8,30.75 69.59,52.56 z m -34.13,80.97 c -7.86,-3.18 -15.59,-1.98 -23.23,3.6 -11.75,8.64 -23.76,28.12 -36.01,58.46 -7.35,18.19 -10.23,31.35 -8.65,39.51 1.09,5.91 4.33,9.97 9.68,12.12 4.3,1.74 8.28,1.94 11.94,0.63 6.85,-2.46 13.51,-7.94 19.92,-16.42 11.44,-15.37 21.21,-33.02 29.27,-52.96 3.75,-9.31 7.6,-20.3 11.56,-32.98 -5.48,-6.27 -10.29,-10.28 -14.48,-11.96"

         inkscape:connector-curvature="0"

         id="path98"

         style="fill:#f6c449;fill-opacity:1;fill-rule:nonzero;stroke:none" /><path

         d="m 2907.55,1548.25 c -16.91,-21.65 -27.02,-45.64 -30.33,-71.95 -3.3,-26.31 0.04,-51.89 10.07,-76.7 6.82,-16.84 16.39,-31.17 28.71,-42.89 12.32,-11.73 25.77,-18.98 40.38,-21.74 14.59,-2.76 28.76,-1.38 42.44,4.16 12.58,5.07 23.05,13.17 31.41,24.29 8.39,11.12 13.1,24.01 14.19,38.64 1.08,14.66 -1.32,29.29 -7.24,43.91 -8.42,20.85 -20.62,35.04 -36.6,42.6 -16,7.56 -32.3,7.98 -48.96,1.24 -7.22,-2.9 -13.96,-6.9 -20.19,-11.96 -2.78,-2.27 -5.92,-6 -9.44,-11.22 -2.9,18.23 -3.15,34.38 -0.75,48.49 2.4,14.09 8,27.5 16.78,40.26 8.82,12.77 22.1,25.65 39.9,38.67 l -1.81,4.51 c -28.8,-11.91 -51.65,-28.67 -68.56,-50.31 z m 32.52,-83.46 c 7.95,3.22 15.79,2.07 23.5,-3.45 11.93,-8.53 24,-27.84 36.17,-57.99 7.24,-17.92 10.06,-30.59 8.48,-38.04 -1.57,-7.43 -4.88,-12.16 -9.91,-14.2 -4.95,-1.99 -10.03,-1.71 -15.29,0.88 -7.33,3.64 -15.29,11.92 -23.9,24.85 -8.6,12.9 -15.92,26.91 -22.03,41.97 -2.8,6.98 -6.76,18.23 -11.85,33.71 5.51,6.42 10.47,10.5 14.83,12.27"

         inkscape:connector-curvature="0"

         id="path100"

         style="fill:#f6c449;fill-opacity:1;fill-rule:nonzero;stroke:none" /></g></g></svg>